<?xml version="1.0" encoding="UTF-8"?>
<!DOCTYPE svg PUBLIC "-//W3C//DTD SVG 1.1//EN" "http://www.w3.org/Graphics/SVG/1.1/DTD/svg11.dtd">
<!-- Creator: CorelDRAW 2020 (64 Bit) -->
<svg xmlns="http://www.w3.org/2000/svg" xml:space="preserve" width="105.974mm" height="46.7618mm" version="1.1" style="shape-rendering:geometricPrecision; text-rendering:geometricPrecision; image-rendering:optimizeQuality; fill-rule:evenodd; clip-rule:evenodd"
viewBox="0 0 9596.68 4234.6"
 xmlns:xlink="http://www.w3.org/1999/xlink"
 xmlns:xodm="http://www.corel.com/coreldraw/odm/2003">
 <defs>
  <style type="text/css">
   <![CDATA[
    .fil2 {fill:#57A695;fill-rule:nonzero}
    .fil0 {fill:#48887B;fill-rule:nonzero}
    .fil1 {fill:#5CA47A;fill-rule:nonzero}
   ]]>
  </style>
 </defs>
 <g id="Layer_x0020_1">
  <metadata id="CorelCorpID_0Corel-Layer"/>
  <path class="fil0" d="M885.17 3841.16c-27.54,0 -51.15,-9.83 -70.82,-29.51 -19.65,-19.68 -29.52,-47.86 -29.52,-84.56l0 -379.69c0,-5.91 0.35,-11.79 1.02,-17.69 -3.93,-72.14 -32.14,-134.08 -84.59,-185.9 -57.06,-57.06 -125.9,-85.56 -206.57,-85.56l-3.93 0c-80.63,0 -149.47,28.5 -206.53,85.56 -52.49,51.82 -80.63,113.76 -84.56,185.9 0.61,5.9 0.96,11.78 0.96,17.69l0 379.69c0,36.7 -9.84,64.88 -29.52,84.56 -19.64,19.68 -43.29,29.51 -70.82,29.51 -27.5,0 -51.11,-9.83 -70.79,-29.51 -19.69,-19.68 -29.49,-48.49 -29.49,-86.55l0 -379.65c1.31,-133.79 49.17,-247.87 143.6,-342.28 89.16,-89.19 202.92,-137.72 341.28,-145.58l15.72 0c138.36,7.86 252.12,56.39 341.32,145.58 16.35,16.39 31.12,33.1 44.24,50.16 13.1,-17.06 27.86,-33.77 44.25,-50.16 89.2,-89.19 202.96,-137.72 341.32,-145.58l15.75 0c138.33,7.86 252.09,56.39 341.29,145.58 94.4,94.41 142.26,208.49 143.6,342.28l0 379.65c0,38.05 -9.84,66.87 -29.49,86.55 -19.71,19.68 -43.29,29.51 -70.82,29.51 -27.54,0 -51.18,-9.83 -70.82,-29.51 -19.68,-19.68 -29.52,-47.86 -29.52,-84.56l0 -379.69c0,-5.91 0.32,-11.79 0.99,-17.69 -3.96,-72.14 -32.1,-134.08 -84.59,-185.9 -57.02,-57.06 -125.87,-85.56 -206.53,-85.56l-3.97 0c-80.63,0 -149.51,28.5 -206.53,85.56 -52.45,51.82 -80.63,113.76 -84.59,185.9 0.63,5.9 0.99,11.78 0.99,17.69l0 379.69c0,36.7 -9.81,64.88 -29.52,84.56 -19.64,19.68 -43.25,29.51 -70.79,29.51l-1.98 0z"/>
  <path class="fil0" d="M3271.71 3143.82c-57.02,-57.06 -125.87,-85.59 -206.53,-85.59 -80.64,0 -149.36,28.37 -206.06,85.07 -56.7,56.74 -85.07,125.43 -85.07,206.09 0,80.63 28.37,149.48 85.07,206.53 56.71,57.06 125.42,85.59 206.06,85.59 80.66,0 149.51,-28.53 206.53,-85.59 48.56,-48.52 76.41,-105.55 83.6,-171.13l0 -37.38c0,-5.9 0.35,-11.82 0.99,-17.69 -3.93,-72.14 -32.1,-134.08 -84.59,-185.9zm284.26 600.97c0,38.02 -9.81,63.61 -29.49,76.71 -19.71,13.13 -43.3,19.68 -70.82,19.68 -27.54,0 -51.15,-6.55 -70.83,-19.68 -19.64,-13.1 -29.51,-38.05 -29.51,-74.75 -83.93,62.93 -180.62,94.43 -290.13,94.43 -135.74,0 -251.49,-47.86 -347.19,-143.63 -95.75,-95.71 -143.6,-211.45 -143.6,-347.19 0,-135.74 47.86,-251.45 143.6,-347.19 95.71,-95.71 211.45,-143.6 347.19,-143.6 135.74,0 251.45,47.89 347.19,143.6 94.41,94.43 142.26,208.52 143.6,342.3l0 399.33z"/>
  <path class="fil0" d="M4851.74 3058.24c-80.64,0 -149.51,28.37 -206.57,85.08 -57.06,56.7 -85.59,125.38 -85.59,206.05 0,80.66 28.53,149.51 85.59,206.56 57.06,57.02 125.93,85.56 206.57,85.56 80.63,0 149.31,-28.53 206.05,-85.56 56.71,-57.05 85.07,-125.9 85.07,-206.56 0,-80.67 -28.36,-149.36 -85.07,-206.05 -56.74,-56.71 -125.42,-85.08 -206.05,-85.08zm291.12 688.51c-83.96,62.93 -180.98,94.4 -291.12,94.4 -135.74,0 -251.49,-47.85 -347.19,-143.6 -95.75,-95.71 -143.6,-211.45 -143.6,-347.19 0,-135.74 47.86,-251.45 143.6,-347.19 95.71,-95.75 211.45,-143.6 347.19,-143.6 135.74,0 251.45,47.85 347.19,143.6 95.72,95.75 143.6,211.13 143.6,346.21l0.99 0 0 391.47c0,5.24 -0.35,10.48 -0.99,15.72 -3.3,130.5 -51.15,241.99 -143.6,334.44 -95.74,95.71 -211.45,143.6 -347.19,143.6l-3.93 0c-27.54,0 -51.18,-9.83 -70.82,-29.51 -19.69,-19.68 -29.52,-43.29 -29.52,-70.82 0,-27.54 9.83,-51.15 29.52,-70.82 19.64,-19.65 43.29,-29.49 70.82,-29.49 4.56,0 9.16,0.33 13.76,1 76.03,-2.65 141.62,-31.15 196.7,-85.59 55.75,-56.42 83.96,-123.92 84.59,-202.6z"/>
  <path class="fil0" d="M6247.8 3841.16c-27.5,0 -51.15,-9.83 -70.79,-29.51 -19.68,-19.68 -29.52,-43.26 -29.52,-70.82l0 -786.85c0,-27.53 9.84,-51.14 29.52,-70.82 19.64,-19.68 43.29,-29.49 70.79,-29.49 27.54,0 51.18,9.81 70.82,29.49 19.68,19.69 29.52,43.3 29.52,70.82l0 786.85c0,27.57 -9.84,51.15 -29.52,70.82 -19.64,19.68 -43.29,29.51 -70.82,29.51zm0 -1079.98c-27.5,0 -51.15,-9.81 -70.79,-29.49 -19.68,-19.68 -29.52,-43.29 -29.52,-70.82 0,-27.54 9.84,-51.15 29.52,-70.82 19.64,-19.65 43.29,-29.49 70.79,-29.49 27.54,0 51.18,9.83 70.82,29.49 19.68,19.68 29.52,43.29 29.52,70.82 0,27.54 -9.84,51.15 -29.52,70.82 -19.64,19.68 -43.29,29.49 -70.82,29.49z"/>
  <path class="fil0" d="M7637.04 3058.24c-80.64,0 -149.51,28.37 -206.57,85.08 -57.06,56.7 -85.59,125.38 -85.59,206.05 0,80.66 28.53,149.51 85.59,206.56 57.06,57.02 125.93,85.56 206.57,85.56 80.63,0 149.31,-28.53 206.05,-85.56 56.71,-57.05 85.07,-125.9 85.07,-206.56 0,-80.67 -28.36,-149.36 -85.07,-206.05 -56.74,-56.71 -125.42,-85.08 -206.05,-85.08zm347.19 -55.08c95.72,95.75 143.6,211.46 143.6,347.19 0,135.74 -47.89,251.49 -143.6,347.19 -95.74,95.75 -211.45,143.6 -347.19,143.6 -135.74,0 -251.49,-47.85 -347.19,-143.6 -95.75,-95.71 -143.6,-211.45 -143.6,-347.19 0,-135.74 47.86,-251.45 143.6,-347.19 95.71,-95.75 211.45,-143.6 347.19,-143.6 135.74,0 251.45,47.85 347.19,143.6z"/>
  <path class="fil0" d="M9252.42 2857.59c27.54,0 50.83,9.52 69.86,28.53 18.98,19.01 28.5,42.3 28.5,69.84 0,26.87 -9.52,50 -28.5,69.32 -19.04,19.36 -42.33,29.04 -69.86,29.04 -13.76,0 -25.43,4.76 -34.92,14.24 -9.52,9.53 -14.24,21.15 -14.24,34.92 0,13.77 4.73,25.43 14.24,34.92 9.49,9.52 21.15,14.24 34.92,14.24 95.1,0 176.21,33.64 243.43,100.83 67.21,67.21 100.82,148.36 100.82,243.43 0,95.1 -33.61,176.24 -100.82,243.43 -67.22,67.22 -148.33,100.83 -243.43,100.83 -95.1,0 -176.25,-33.61 -243.43,-100.83 -67.21,-67.18 -100.79,-148.32 -100.79,-243.43 0,-27.54 9.65,-50.79 29.01,-69.84 19.3,-19.01 42.43,-28.5 69.33,-28.5 27.54,0 50.82,9.49 69.83,28.5 19.01,19.04 28.53,42.3 28.53,69.84 0,40.67 14.41,75.42 43.25,104.27 28.88,28.85 63.64,43.26 104.28,43.26 40.63,0 75.4,-14.41 104.28,-43.26 28.84,-28.84 43.25,-63.6 43.25,-104.27 0,-40.64 -14.41,-75.4 -43.25,-104.24 -28.88,-28.85 -63.64,-43.3 -104.28,-43.3 -68.21,0 -126.22,-24.09 -174.08,-72.29 -47.89,-48.18 -71.81,-106.06 -71.81,-173.6 0,-68.21 23.93,-126.22 71.81,-174.08 47.86,-47.85 105.87,-71.81 174.08,-71.81z"/>
  <path class="fil1" d="M4000.65 1443.68l-280.17 483.31c-52.65,90.79 -119.06,169.32 -195.35,234.11 -243.05,206.85 -585.77,274.61 -898.85,157.5l-193.24 -72.39 375.3 -644.84 332.82 -572.19c81.08,-40.52 172.6,-63.42 269.37,-63.42 290.2,0 532.51,204.94 590.11,477.92z"/>
  <path class="fil1" d="M6934.89 1901.56c0,267.68 -216.97,484.66 -484.66,484.66 -267.68,0 -484.66,-216.98 -484.66,-484.66 0,-267.65 216.98,-484.63 484.66,-484.63 267.69,0 484.66,216.98 484.66,484.63z"/>
  <path class="fil2" d="M6568.69 1115.36l-121.88 -76.9c-228.86,-144.49 -531.94,-69.09 -666.43,165.74l-532.03 928.78c-183.86,321.01 -647.27,319.66 -829.14,-2.55l-402.98 -713.52 -15.58 26.78c-57.57,-272.98 -299.88,-477.92 -590.09,-477.92 -96.8,0 -188.32,22.9 -269.41,63.44l458.91 -788.76c187.27,-321.89 652.95,-320.26 837.99,3.01l391.31 683.43 390.83 -676.12c188.61,-326.24 659.66,-326.39 848.46,0l500.03 864.6z"/>
 </g>
</svg>
