<?xml version="1.0" encoding="UTF-8"?>
<!DOCTYPE svg PUBLIC "-//W3C//DTD SVG 1.1//EN" "http://www.w3.org/Graphics/SVG/1.1/DTD/svg11.dtd">
<!-- Creator: CorelDRAW 2020 (64 Bit) -->
<svg xmlns="http://www.w3.org/2000/svg" xml:space="preserve" width="49.7129mm" height="26.3505mm" version="1.1" style="shape-rendering:geometricPrecision; text-rendering:geometricPrecision; image-rendering:optimizeQuality; fill-rule:evenodd; clip-rule:evenodd"
viewBox="0 0 1482.09 785.59"
 xmlns:xlink="http://www.w3.org/1999/xlink"
 xmlns:xodm="http://www.corel.com/coreldraw/odm/2003">
 <defs>
  <style type="text/css">
   <![CDATA[
    .fil1 {fill:#606062;fill-rule:nonzero}
    .fil0 {fill:#4B4B4D;fill-rule:nonzero}
   ]]>
  </style>
 </defs>
 <g id="Layer_x0020_1">
  <metadata id="CorelCorpID_0Corel-Layer"/>
  <path class="fil0" d="M516.09 475.29l-92.24 159.12c-17.33,29.89 -39.2,55.74 -64.31,77.07 -80.02,68.1 -192.85,90.41 -295.92,51.85l-63.62 -23.83 123.56 -212.29 109.57 -188.38c26.69,-13.34 56.82,-20.88 88.68,-20.88 95.54,0 175.31,67.47 194.28,157.34z"/>
  <path class="fil0" d="M1482.09 626.03c0,88.12 -71.43,159.56 -159.56,159.56 -88.12,0 -159.56,-71.44 -159.56,-159.56 0,-88.12 71.44,-159.55 159.56,-159.55 88.13,0 159.56,71.44 159.56,159.55z"/>
  <path class="fil1" d="M1361.54 367.2l-40.13 -25.32c-75.35,-47.57 -175.13,-22.75 -219.4,54.56l-175.15 305.77c-60.53,105.68 -213.09,105.24 -272.97,-0.84l-132.67 -234.91 -5.13 8.82c-18.95,-89.87 -98.73,-157.34 -194.27,-157.34 -31.87,0 -62,7.54 -88.69,20.89l151.08 -259.67c61.65,-105.97 214.96,-105.44 275.88,0.99l128.83 225 128.67 -222.59c62.09,-107.4 217.17,-107.46 279.33,0l164.62 284.64z"/>
 </g>
</svg>
