<?xml version="1.0" encoding="UTF-8"?>
<!DOCTYPE svg PUBLIC "-//W3C//DTD SVG 1.1//EN" "http://www.w3.org/Graphics/SVG/1.1/DTD/svg11.dtd">
<!-- Creator: CorelDRAW 2020 (64 Bit) -->
<svg xmlns="http://www.w3.org/2000/svg" xml:space="preserve" width="105.974mm" height="18.4861mm" version="1.1" style="shape-rendering:geometricPrecision; text-rendering:geometricPrecision; image-rendering:optimizeQuality; fill-rule:evenodd; clip-rule:evenodd"
viewBox="0 0 10605.89 1850.09"
 xmlns:xlink="http://www.w3.org/1999/xlink"
 xmlns:xodm="http://www.corel.com/coreldraw/odm/2003">
 <defs>
  <style type="text/css">
   <![CDATA[
    .fil0 {fill:#373435;fill-rule:nonzero}
   ]]>
  </style>
 </defs>
 <g id="Layer_x0020_1">
  <metadata id="CorelCorpID_0Corel-Layer"/>
  <path class="fil0" d="M978.26 1415.27c-30.43,0 -56.53,-10.87 -78.27,-32.62 -21.72,-21.75 -32.63,-52.89 -32.63,-93.45l0 -419.62c0,-6.54 0.39,-13.03 1.13,-19.56 -4.34,-79.72 -35.52,-148.18 -93.48,-205.44 -63.06,-63.06 -139.14,-94.56 -228.29,-94.56l-4.34 0c-89.11,0 -165.19,31.5 -228.25,94.56 -58.01,57.27 -89.11,125.72 -93.45,205.44 0.67,6.53 1.06,13.02 1.06,19.56l0 419.62c0,40.56 -10.88,71.71 -32.63,93.45 -21.71,21.75 -47.84,32.62 -78.27,32.62 -30.39,0 -56.49,-10.87 -78.23,-32.62 -21.76,-21.75 -32.6,-53.59 -32.6,-95.65l0 -419.58c1.45,-147.86 54.34,-273.94 158.71,-378.27 98.54,-98.57 224.26,-152.2 377.17,-160.89l17.37 0c152.91,8.69 278.63,62.32 377.21,160.89 18.07,18.11 34.39,36.58 48.89,55.43 14.48,-18.86 30.79,-37.32 48.9,-55.43 98.58,-98.57 224.3,-152.2 377.21,-160.89l17.4 0c152.88,8.69 278.6,62.32 377.18,160.89 104.32,104.33 157.22,230.41 158.7,378.27l0 419.58c0,42.05 -10.88,73.9 -32.59,95.65 -21.79,21.75 -47.84,32.62 -78.27,32.62 -30.43,0 -56.57,-10.87 -78.27,-32.62 -21.75,-21.75 -32.63,-52.89 -32.63,-93.45l0 -419.62c0,-6.54 0.35,-13.03 1.09,-19.56 -4.37,-79.72 -35.48,-148.18 -93.48,-205.44 -63.02,-63.06 -139.11,-94.56 -228.25,-94.56l-4.38 0c-89.11,0 -165.23,31.5 -228.25,94.56 -57.97,57.27 -89.11,125.72 -93.48,205.44 0.7,6.53 1.09,13.02 1.09,19.56l0 419.62c0,40.56 -10.84,71.71 -32.63,93.45 -21.71,21.75 -47.8,32.62 -78.23,32.62l-2.19 0z"/>
  <path class="fil0" d="M3615.77 644.6c-63.02,-63.06 -139.11,-94.59 -228.25,-94.59 -89.12,0 -165.06,31.36 -227.73,94.02 -62.66,62.71 -94.02,138.62 -94.02,227.76 0,89.11 31.36,165.2 94.02,228.25 62.67,63.06 138.61,94.59 227.73,94.59 89.14,0 165.23,-31.53 228.25,-94.59 53.66,-53.62 84.45,-116.65 92.39,-189.13l0 -41.31c0,-6.53 0.39,-13.06 1.09,-19.56 -4.34,-79.72 -35.48,-148.18 -93.48,-205.44zm314.15 664.17c0,42.02 -10.84,70.3 -32.59,84.78 -21.79,14.51 -47.85,21.75 -78.27,21.75 -30.43,0 -56.53,-7.24 -78.28,-21.75 -21.71,-14.48 -32.62,-42.05 -32.62,-82.62 -92.75,69.55 -199.62,104.36 -320.65,104.36 -150.02,0 -277.93,-52.89 -383.71,-158.74 -105.81,-105.77 -158.71,-233.69 -158.71,-383.71 0,-150.02 52.89,-277.89 158.71,-383.71 105.77,-105.77 233.69,-158.7 383.71,-158.7 150.01,0 277.89,52.92 383.7,158.7 104.33,104.36 157.23,230.44 158.71,378.3l0 441.32z"/>
  <path class="fil0" d="M5361.97 550.02c-89.12,0 -165.23,31.36 -228.29,94.03 -63.06,62.66 -94.59,138.57 -94.59,227.72 0,89.14 31.53,165.23 94.59,228.28 63.06,63.02 139.17,94.56 228.29,94.56 89.11,0 165.01,-31.54 227.72,-94.56 62.67,-63.05 94.02,-139.14 94.02,-228.28 0,-89.15 -31.35,-165.06 -94.02,-227.72 -62.71,-62.67 -138.61,-94.03 -227.72,-94.03zm321.74 760.92c-92.78,69.55 -200.01,104.32 -321.74,104.32 -150.02,0 -277.93,-52.88 -383.71,-158.7 -105.81,-105.77 -158.71,-233.69 -158.71,-383.71 0,-150.01 52.89,-277.89 158.71,-383.71 105.77,-105.81 233.69,-158.7 383.71,-158.7 150.01,0 277.89,52.88 383.7,158.7 105.78,105.81 158.71,233.34 158.71,382.62l1.09 0 0 432.64c0,5.79 -0.39,11.58 -1.09,17.37 -3.64,144.23 -56.53,267.44 -158.71,369.62 -105.8,105.77 -233.69,158.7 -383.7,158.7l-4.34 0c-30.43,0 -56.57,-10.87 -78.27,-32.62 -21.76,-21.75 -32.63,-47.84 -32.63,-78.27 0,-30.43 10.87,-56.53 32.63,-78.27 21.71,-21.72 47.84,-32.6 78.27,-32.6 5.04,0 10.13,0.36 15.21,1.1 84.03,-2.93 156.52,-34.43 217.38,-94.59 61.61,-62.35 92.78,-136.95 93.48,-223.91z"/>
  <path class="fil0" d="M6904.84 1415.27c-30.39,0 -56.53,-10.87 -78.23,-32.62 -21.75,-21.75 -32.63,-47.81 -32.63,-78.27l0 -869.6c0,-30.42 10.88,-56.52 32.63,-78.27 21.71,-21.75 47.84,-32.59 78.23,-32.59 30.43,0 56.57,10.84 78.27,32.59 21.75,21.76 32.63,47.85 32.63,78.27l0 869.6c0,30.46 -10.88,56.53 -32.63,78.27 -21.71,21.75 -47.84,32.62 -78.27,32.62zm0 -1193.55c-30.39,0 -56.53,-10.84 -78.23,-32.59 -21.75,-21.75 -32.63,-47.84 -32.63,-78.27 0,-30.43 10.88,-56.53 32.63,-78.27 21.71,-21.72 47.84,-32.59 78.23,-32.59 30.43,0 56.57,10.87 78.27,32.59 21.75,21.75 32.63,47.84 32.63,78.27 0,30.43 -10.88,56.53 -32.63,78.27 -21.71,21.75 -47.84,32.59 -78.27,32.59z"/>
  <path class="fil0" d="M8440.18 550.02c-89.12,0 -165.23,31.36 -228.29,94.03 -63.06,62.66 -94.59,138.57 -94.59,227.72 0,89.14 31.53,165.23 94.59,228.28 63.06,63.02 139.17,94.56 228.29,94.56 89.11,0 165.01,-31.54 227.72,-94.56 62.67,-63.05 94.02,-139.14 94.02,-228.28 0,-89.15 -31.35,-165.06 -94.02,-227.72 -62.71,-62.67 -138.61,-94.03 -227.72,-94.03zm383.7 -60.87c105.78,105.81 158.71,233.7 158.71,383.71 0,150.02 -52.92,277.93 -158.71,383.71 -105.8,105.81 -233.69,158.7 -383.7,158.7 -150.02,0 -277.93,-52.88 -383.71,-158.7 -105.81,-105.77 -158.71,-233.69 -158.71,-383.71 0,-150.01 52.89,-277.89 158.71,-383.71 105.77,-105.81 233.69,-158.7 383.71,-158.7 150.01,0 277.89,52.88 383.7,158.7z"/>
  <path class="fil0" d="M10225.43 328.27c30.43,0 56.17,10.52 77.21,31.53 20.98,21.01 31.5,46.75 31.5,77.18 0,29.69 -10.52,55.25 -31.5,76.61 -21.04,21.4 -46.78,32.1 -77.21,32.1 -15.21,0 -28.1,5.26 -38.59,15.74 -10.52,10.53 -15.74,23.38 -15.74,38.59 0,15.22 5.22,28.1 15.74,38.59 10.49,10.52 23.38,15.74 38.59,15.74 105.1,0 194.75,37.18 269.04,111.43 74.28,74.28 111.42,163.96 111.42,269.04 0,105.1 -37.14,194.78 -111.42,269.03 -74.29,74.29 -163.93,111.43 -269.04,111.43 -105.1,0 -194.79,-37.14 -269.04,-111.43 -74.28,-74.25 -111.39,-163.92 -111.39,-269.03 0,-30.43 10.67,-56.13 32.06,-77.18 21.33,-21.01 46.89,-31.5 76.62,-31.5 30.43,0 56.16,10.49 77.17,31.5 21.01,21.05 31.54,46.75 31.54,77.18 0,44.95 15.92,83.36 47.8,115.23 31.92,31.89 70.34,47.81 115.24,47.81 44.91,0 83.33,-15.92 115.24,-47.81 31.88,-31.88 47.8,-70.29 47.8,-115.23 0,-44.92 -15.92,-83.33 -47.8,-115.2 -31.92,-31.89 -70.34,-47.85 -115.24,-47.85 -75.38,0 -139.49,-26.62 -192.38,-79.89 -52.92,-53.24 -79.36,-117.21 -79.36,-191.85 0,-75.38 26.44,-139.49 79.36,-192.38 52.89,-52.88 117,-79.36 192.38,-79.36z"/>
 </g>
</svg>
