<?xml version="1.0" encoding="UTF-8"?>
<!DOCTYPE svg PUBLIC "-//W3C//DTD SVG 1.1//EN" "http://www.w3.org/Graphics/SVG/1.1/DTD/svg11.dtd">
<!-- Creator: CorelDRAW 2020 (64 Bit) -->
<svg xmlns="http://www.w3.org/2000/svg" xml:space="preserve" width="130.013mm" height="30.5981mm" version="1.1" style="shape-rendering:geometricPrecision; text-rendering:geometricPrecision; image-rendering:optimizeQuality; fill-rule:evenodd; clip-rule:evenodd"
viewBox="0 0 33155.87 7803.1"
 xmlns:xlink="http://www.w3.org/1999/xlink"
 xmlns:xodm="http://www.corel.com/coreldraw/odm/2003">
 <defs>
  <style type="text/css">
   <![CDATA[
    .fil1 {fill:#00A543;fill-rule:nonzero}
    .fil0 {fill:#00BD54;fill-rule:nonzero}
   ]]>
  </style>
 </defs>
 <g id="Layer_x0020_1">
  <metadata id="CorelCorpID_0Corel-Layer"/>
  <path class="fil0" d="M16752.2 6667.78c-77.55,0 -144.03,-27.7 -199.45,-83.11 -55.34,-55.42 -83.14,-134.78 -83.14,-238.14l0 -1069.24c0,-16.65 0.99,-33.2 2.88,-49.83 -11.07,-203.15 -90.51,-377.58 -238.21,-523.5 -160.69,-160.69 -354.55,-240.94 -581.72,-240.94l-11.07 0c-227.07,0 -420.93,80.25 -581.62,240.94 -147.81,145.92 -227.07,320.35 -238.14,523.5 1.71,16.63 2.7,33.18 2.7,49.83l0 1069.24c0,103.36 -27.72,182.72 -83.14,238.14 -55.31,55.42 -121.9,83.11 -199.45,83.11 -77.45,0 -143.93,-27.7 -199.35,-83.11 -55.44,-55.42 -83.06,-136.56 -83.06,-243.72l0 -1069.14c3.7,-376.77 138.48,-698.04 404.41,-963.9 251.09,-251.17 571.45,-387.83 961.09,-409.97l44.27 0c389.64,22.14 710,158.8 961.19,409.97 46.06,46.16 87.62,93.21 124.58,141.26 36.9,-48.05 78.47,-95.1 124.6,-141.26 251.19,-251.17 571.55,-387.83 961.19,-409.97l44.35 0c389.57,22.14 709.92,158.8 961.12,409.97 265.83,265.86 400.61,587.13 404.38,963.9l0 1069.14c0,107.16 -27.72,188.31 -83.03,243.72 -55.52,55.42 -121.9,83.11 -199.45,83.11 -77.55,0 -144.14,-27.7 -199.45,-83.11 -55.42,-55.42 -83.14,-134.78 -83.14,-238.14l0 -1069.24c0,-16.65 0.89,-33.2 2.78,-49.83 -11.14,-203.15 -90.4,-377.58 -238.21,-523.5 -160.59,-160.69 -354.48,-240.94 -581.62,-240.94l-11.17 0c-227.07,0 -421.04,80.25 -581.62,240.94 -147.71,145.92 -227.07,320.35 -238.21,523.5 1.79,16.63 2.78,33.18 2.78,49.83l0 1069.24c0,103.36 -27.62,182.72 -83.14,238.14 -55.31,55.42 -121.8,83.11 -199.35,83.11l-5.58 0z"/>
  <path class="fil0" d="M21819.1 4741.44c-160.59,-160.69 -354.48,-241.02 -581.62,-241.02 -227.09,0 -420.6,79.9 -580.3,239.56 -159.67,159.79 -239.56,353.23 -239.56,580.37 0,227.07 79.9,420.96 239.56,581.62 159.69,160.69 353.2,241.02 580.3,241.02 227.15,0 421.04,-80.33 581.62,-241.02 136.74,-136.64 215.19,-297.25 235.43,-481.93l0 -105.27c0,-16.63 0.99,-33.28 2.78,-49.83 -11.07,-203.15 -90.4,-377.58 -238.21,-523.5zm800.5 1692.41c0,107.08 -27.62,179.13 -83.03,216.03 -55.52,36.98 -121.92,55.42 -199.45,55.42 -77.55,0 -144.03,-18.44 -199.48,-55.42 -55.31,-36.9 -83.11,-107.16 -83.11,-210.52 -236.35,177.21 -508.66,265.93 -817.06,265.93 -382.27,0 -708.21,-134.78 -977.74,-404.49 -269.63,-269.53 -404.41,-595.47 -404.41,-977.74 0,-382.27 134.78,-708.11 404.41,-977.74 269.53,-269.53 595.47,-404.38 977.74,-404.38 382.25,0 708.11,134.85 977.72,404.38 265.86,265.93 400.63,587.21 404.41,963.97l0 1124.56z"/>
  <path class="fil0" d="M24619.62 4490.32c-227.09,0 -421.04,79.9 -581.72,239.59 -160.69,159.67 -241.02,353.1 -241.02,580.27 0,227.15 80.33,421.04 241.02,581.7 160.69,160.59 354.63,240.94 581.72,240.94 227.07,0 420.48,-80.36 580.27,-240.94 159.69,-160.66 239.56,-354.55 239.56,-581.7 0,-227.17 -79.87,-420.6 -239.56,-580.27 -159.79,-159.69 -353.2,-239.59 -580.27,-239.59zm819.84 1938.94c-236.43,177.21 -509.66,265.83 -819.84,265.83 -382.27,0 -708.21,-134.75 -977.74,-404.38 -269.63,-269.53 -404.41,-595.47 -404.41,-977.74 0,-382.25 134.78,-708.11 404.41,-977.74 269.53,-269.63 595.47,-404.38 977.74,-404.38 382.25,0 708.11,134.75 977.72,404.38 269.56,269.63 404.41,594.58 404.41,974.96l2.78 0 0 1102.42c0,14.77 -0.99,29.51 -2.78,44.27 -9.28,367.51 -144.03,681.49 -404.41,941.84 -269.61,269.53 -595.47,404.38 -977.72,404.38l-11.07 0c-77.55,0 -144.14,-27.7 -199.45,-83.11 -55.44,-55.42 -83.14,-121.9 -83.14,-199.45 0,-77.55 27.7,-144.03 83.14,-199.45 55.31,-55.34 121.9,-83.06 199.45,-83.06 12.85,0 25.81,0.92 38.76,2.81 214.11,-7.47 398.82,-87.73 553.93,-241.02 156.99,-158.88 236.43,-348.97 238.21,-570.55z"/>
  <path class="fil0" d="M26908 6714.09c-77.45,0 -144.03,-27.7 -199.35,-83.11 -55.42,-55.42 -83.14,-121.82 -83.14,-199.45l0 -2215.86c0,-77.53 27.72,-144.01 83.14,-199.45 55.31,-55.42 121.9,-83.03 199.35,-83.03 77.55,0 144.14,27.62 199.45,83.03 55.42,55.44 83.14,121.92 83.14,199.45l0 2215.86c0,77.63 -27.72,144.03 -83.14,199.45 -55.31,55.42 -121.9,83.11 -199.45,83.11zm0 -3041.36c-77.45,0 -144.03,-27.62 -199.35,-83.03 -55.42,-55.42 -83.14,-121.9 -83.14,-199.45 0,-77.55 27.72,-144.03 83.14,-199.45 55.31,-55.34 121.9,-83.03 199.35,-83.03 77.55,0 144.14,27.7 199.45,83.03 55.42,55.42 83.14,121.9 83.14,199.45 0,77.55 -27.72,144.03 -83.14,199.45 -55.31,55.42 -121.9,83.03 -199.45,83.03z"/>
  <path class="fil0" d="M29205.42 4469.08c-227.09,0 -421.04,79.9 -581.72,239.59 -160.69,159.67 -241.02,353.1 -241.02,580.27 0,227.15 80.33,421.04 241.02,581.7 160.69,160.59 354.63,240.94 581.72,240.94 227.07,0 420.48,-80.36 580.27,-240.94 159.69,-160.66 239.56,-354.55 239.56,-581.7 0,-227.17 -79.87,-420.6 -239.56,-580.27 -159.79,-159.69 -353.2,-239.59 -580.27,-239.59zm977.72 -155.1c269.56,269.63 404.41,595.49 404.41,977.74 0,382.27 -134.85,708.21 -404.41,977.74 -269.61,269.63 -595.47,404.38 -977.72,404.38 -382.27,0 -708.21,-134.75 -977.74,-404.38 -269.63,-269.53 -404.41,-595.47 -404.41,-977.74 0,-382.25 134.78,-708.11 404.41,-977.74 269.53,-269.63 595.47,-404.38 977.74,-404.38 382.25,0 708.11,134.75 977.72,404.38z"/>
  <path class="fil0" d="M32186.41 3929.31c77.55,0 143.14,26.8 196.75,80.33 53.45,53.53 80.25,119.12 80.25,196.67 0,75.66 -26.8,140.8 -80.25,195.22 -53.61,54.52 -119.2,81.78 -196.75,81.78 -38.76,0 -71.61,13.41 -98.34,40.11 -26.8,26.83 -40.11,59.57 -40.11,98.34 0,38.79 13.31,71.61 40.11,98.34 26.73,26.8 59.57,40.11 98.34,40.11 267.82,0 496.24,94.74 685.54,283.94 189.28,189.28 283.91,417.8 283.91,685.54 0,267.82 -94.64,496.32 -283.91,685.52 -189.3,189.3 -417.72,283.94 -685.54,283.94 -267.82,0 -496.34,-94.64 -685.54,-283.94 -189.28,-189.2 -283.84,-417.7 -283.84,-685.52 0,-77.55 27.19,-143.04 81.68,-196.67 54.34,-53.53 119.48,-80.25 195.24,-80.25 77.55,0 143.12,26.73 196.65,80.25 53.53,53.63 80.36,119.12 80.36,196.67 0,114.53 40.57,212.41 121.8,293.63 81.33,81.25 179.23,121.82 293.65,121.82 114.43,0 212.33,-40.57 293.65,-121.82 81.22,-81.22 121.8,-179.1 121.8,-293.63 0,-114.45 -40.57,-212.33 -121.8,-293.55 -81.33,-81.25 -179.23,-121.92 -293.65,-121.92 -192.08,0 -355.45,-67.84 -490.22,-203.58 -134.85,-135.67 -202.23,-298.68 -202.23,-488.87 0,-192.08 67.38,-355.45 202.23,-490.22 134.78,-134.75 298.14,-202.23 490.22,-202.23z"/>
  <path class="fil1" d="M4414.58 4065.59l-789 1361.06c-148.27,255.68 -335.3,476.83 -550.13,659.28 -684.45,582.51 -1649.59,773.35 -2531.27,443.53l-544.19 -203.86 1056.9 -1815.94 937.27 -1611.36c228.32,-114.1 486.07,-178.59 758.58,-178.59 817.23,0 1499.61,577.13 1661.83,1345.89z"/>
  <path class="fil0" d="M12677.74 5355.02c0,753.81 -611.03,1364.86 -1364.86,1364.86 -753.81,0 -1364.86,-611.05 -1364.86,-1364.86 0,-753.73 611.05,-1364.79 1364.86,-1364.79 753.84,0 1364.86,611.05 1364.86,1364.79z"/>
  <path class="fil0" d="M11646.49 3140.99l-343.23 -216.56c-644.51,-406.91 -1498.01,-194.58 -1876.76,466.74l-1498.26 2615.55c-517.77,903.99 -1822.8,900.19 -2334.95,-7.19l-1134.83 -2009.37 -43.89 75.41c-162.12,-768.75 -844.5,-1345.89 -1661.76,-1345.89 -272.59,0 -530.34,64.49 -758.68,178.67l1292.36 -2221.24c527.38,-906.49 1838.79,-901.9 2359.87,8.47l1101.99 1924.63 1100.64 -1904.02c531.15,-918.73 1857.69,-919.17 2389.38,0l1408.14 2434.82z"/>
 </g>
</svg>
