<?xml version="1.0" encoding="UTF-8"?>
<!DOCTYPE svg PUBLIC "-//W3C//DTD SVG 1.1//EN" "http://www.w3.org/Graphics/SVG/1.1/DTD/svg11.dtd">
<!-- Creator: CorelDRAW 2020 (64 Bit) -->
<svg xmlns="http://www.w3.org/2000/svg" xml:space="preserve" width="51.475mm" height="51.475mm" version="1.1" style="shape-rendering:geometricPrecision; text-rendering:geometricPrecision; image-rendering:optimizeQuality; fill-rule:evenodd; clip-rule:evenodd"
viewBox="0 0 257.89 257.89"
 xmlns:xlink="http://www.w3.org/1999/xlink"
 xmlns:xodm="http://www.corel.com/coreldraw/odm/2003">
 <defs>
  <style type="text/css">
   <![CDATA[
    .fil1 {fill:#666699;fill-rule:nonzero}
    .fil2 {fill:#7657A6;fill-rule:nonzero}
    .fil0 {fill:url(#id0)}
   ]]>
  </style>
  <linearGradient id="id0" gradientUnits="userSpaceOnUse" x1="30.75" y1="215.7" x2="217.85" y2="48.96">
   <stop offset="0" style="stop-opacity:1; stop-color:#42B65E"/>
   <stop offset="1" style="stop-opacity:1; stop-color:#3CBFC1"/>
  </linearGradient>
 </defs>
 <g id="Layer_x0020_1">
  <metadata id="CorelCorpID_0Corel-Layer"/>
  <rect class="fil0" y="-0" width="257.89" height="257.89" rx="6.69" ry="8.43"/>
  <path class="fil1" d="M96.3 135.59l-12.19 21.03c-2.29,3.95 -5.18,7.37 -8.5,10.19 -10.58,9 -25.49,11.95 -39.11,6.85l-8.41 -3.15 16.33 -28.06 14.48 -24.9c3.53,-1.76 7.51,-2.76 11.72,-2.76 12.63,0 23.17,8.92 25.68,20.79z"/>
  <path class="fil1" d="M223.97 155.51c0,11.65 -9.44,21.09 -21.09,21.09 -11.65,0 -21.09,-9.44 -21.09,-21.09 0,-11.65 9.44,-21.09 21.09,-21.09 11.65,0 21.09,9.44 21.09,21.09z"/>
  <path class="fil2" d="M208.03 121.31l-5.3 -3.35c-9.96,-6.29 -23.14,-3.01 -29,7.21l-23.15 40.41c-8,13.97 -28.16,13.91 -36.08,-0.11l-17.53 -31.05 -0.68 1.17c-2.5,-11.88 -13.05,-20.79 -25.67,-20.79 -4.21,0 -8.19,1 -11.72,2.76l19.97 -34.32c8.15,-14.01 28.41,-13.93 36.46,0.13l17.03 29.74 17.01 -29.42c8.21,-14.19 28.7,-14.2 36.92,0l21.76 37.62z"/>
 </g>
</svg>
