<?xml version="1.0" encoding="UTF-8"?>
<!DOCTYPE svg PUBLIC "-//W3C//DTD SVG 1.1//EN" "http://www.w3.org/Graphics/SVG/1.1/DTD/svg11.dtd">
<!-- Creator: CorelDRAW 2020 (64 Bit) -->
<svg xmlns="http://www.w3.org/2000/svg" xml:space="preserve" width="51.0355mm" height="51.0355mm" version="1.1" style="shape-rendering:geometricPrecision; text-rendering:geometricPrecision; image-rendering:optimizeQuality; fill-rule:evenodd; clip-rule:evenodd"
viewBox="0 0 253.29 253.29"
 xmlns:xlink="http://www.w3.org/1999/xlink"
 xmlns:xodm="http://www.corel.com/coreldraw/odm/2003">
 <defs>
  <style type="text/css">
   <![CDATA[
    .fil3 {fill:#2F2F68;fill-rule:nonzero}
    .fil1 {fill:#666699;fill-rule:nonzero}
    .fil2 {fill:#7657A6;fill-rule:nonzero}
    .fil0 {fill:url(#id0)}
   ]]>
  </style>
  <linearGradient id="id0" gradientUnits="userSpaceOnUse" x1="30.21" y1="211.85" x2="213.96" y2="48.09">
   <stop offset="0" style="stop-opacity:1; stop-color:#42B65E"/>
   <stop offset="1" style="stop-opacity:1; stop-color:#3CBFC1"/>
  </linearGradient>
 </defs>
 <g id="Layer_x0020_1">
  <metadata id="CorelCorpID_0Corel-Layer"/>
  <rect class="fil0" y="-0" width="253.29" height="253.29" rx="6.57" ry="8.28"/>
  <path class="fil1" d="M95.75 117.17l-11.97 20.65c-2.25,3.88 -5.09,7.24 -8.35,10 -10.39,8.84 -25.03,11.74 -38.41,6.73l-8.26 -3.09 16.04 -27.56 14.22 -24.45c3.46,-1.73 7.38,-2.71 11.51,-2.71 12.4,0 22.76,8.76 25.22,20.42z"/>
  <path class="fil1" d="M221.14 136.73c0,11.44 -9.27,20.71 -20.71,20.71 -11.44,0 -20.71,-9.27 -20.71,-20.71 0,-11.44 9.27,-20.71 20.71,-20.71 11.44,0 20.71,9.27 20.71,20.71z"/>
  <path class="fil2" d="M205.49 103.14l-5.21 -3.29c-9.78,-6.17 -22.73,-2.95 -28.48,7.08l-22.74 39.69c-7.86,13.72 -27.66,13.66 -35.43,-0.11l-17.22 -30.49 -0.67 1.14c-2.46,-11.67 -12.82,-20.42 -25.22,-20.42 -4.14,0 -8.05,0.98 -11.51,2.71l19.61 -33.71c8,-13.76 27.9,-13.69 35.81,0.13l16.72 29.21 16.7 -28.89c8.06,-13.94 28.19,-13.95 36.26,0l21.37 36.95z"/>
  <path class="fil3" d="M48.31 189.55l-1.65 0 0 -5.6c0,-0.67 -0.31,-1.21 -0.93,-1.62 -0.62,-0.41 -1.35,-0.61 -2.2,-0.61 -0.82,0 -1.55,0.2 -2.18,0.61 -0.63,0.41 -0.95,0.95 -0.95,1.62l0 5.6 -1.65 0 0 -5.6c0,-0.67 -0.31,-1.21 -0.93,-1.62 -0.62,-0.41 -1.35,-0.61 -2.2,-0.61 -0.82,0 -1.55,0.2 -2.18,0.61 -0.63,0.41 -0.95,0.95 -0.95,1.62l0 5.6 -1.66 0 0 -8.78 1.39 0.77c0.94,-0.67 2.08,-1.01 3.4,-1.01 0.8,0 1.56,0.14 2.29,0.41 0.72,0.27 1.28,0.63 1.68,1.07 0.96,-0.99 2.28,-1.48 3.95,-1.48 0.7,0 1.34,0.09 1.91,0.28 0.57,0.19 1.06,0.43 1.47,0.72 0.41,0.29 0.75,0.65 1.01,1.05 0.26,0.41 0.39,0.86 0.39,1.36l0 5.6zm16.21 -1.18c-1.3,0.96 -2.87,1.44 -4.69,1.44 -1.77,0 -3.29,-0.46 -4.57,-1.37 -1.28,-0.92 -1.93,-2.01 -1.93,-3.26 0,-1.29 0.64,-2.38 1.93,-3.29 1.28,-0.9 2.81,-1.35 4.57,-1.35 1.83,0 3.39,0.48 4.69,1.44l1.81 -1.2 0 8.78 -1.81 -1.18zm-4.69 -6.66c-1.36,0 -2.51,0.33 -3.45,1 -0.93,0.67 -1.4,1.49 -1.4,2.46 0,0.97 0.47,1.79 1.4,2.46 0.93,0.67 2.08,1 3.45,1 1.34,0 2.49,-0.34 3.43,-1.01 0.94,-0.67 1.42,-1.49 1.42,-2.45 0,-0.96 -0.47,-1.78 -1.42,-2.45 -0.94,-0.67 -2.09,-1.01 -3.43,-1.01zm13.9 11.12c0.96,0.93 2.3,1.4 4,1.4 1.36,0 2.53,-0.33 3.5,-1 0.98,-0.67 1.46,-1.51 1.46,-2.54l0 -2.43c-1.31,1.03 -2.92,1.55 -4.85,1.55 -1.77,0 -3.29,-0.46 -4.58,-1.37 -1.28,-0.92 -1.93,-2.01 -1.93,-3.26 0,-1.29 0.64,-2.38 1.93,-3.29 1.28,-0.9 2.81,-1.35 4.58,-1.35 1.82,0 3.39,0.48 4.69,1.44l1.81 -1.2 0 9.92c0,1.32 -0.65,2.43 -1.95,3.35 -1.31,0.91 -2.86,1.37 -4.67,1.37 -2.17,0 -3.92,-0.62 -5.27,-1.85l1.27 -0.73zm4.12 -11.12c-1.36,0 -2.51,0.33 -3.45,1 -0.93,0.67 -1.4,1.49 -1.4,2.46 0,0.97 0.47,1.79 1.4,2.46 0.93,0.67 2.08,1 3.45,1 1.34,0 2.49,-0.34 3.43,-1.01 0.94,-0.67 1.42,-1.49 1.42,-2.45 0,-0.96 -0.47,-1.78 -1.42,-2.45 -0.94,-0.67 -2.09,-1.01 -3.43,-1.01zm11.97 -0.95l1.66 0 0 8.78 -1.66 0 0 -8.78zm0 -3.44l1.66 0 0 1.29 -1.66 0 0 -1.29zm13.17 3.2c1.81,0 3.34,0.45 4.6,1.35 1.27,0.9 1.9,2 1.9,3.29 0,1.26 -0.63,2.35 -1.9,3.26 -1.26,0.91 -2.8,1.37 -4.6,1.37 -1.77,0 -3.29,-0.46 -4.57,-1.37 -1.28,-0.92 -1.93,-2.01 -1.93,-3.26 0,-1.29 0.64,-2.38 1.93,-3.29 1.28,-0.9 2.81,-1.35 4.57,-1.35zm0 1.18c-1.36,0 -2.51,0.33 -3.45,1 -0.93,0.67 -1.4,1.49 -1.4,2.46 0,0.97 0.47,1.79 1.4,2.46 0.93,0.67 2.08,1 3.45,1 1.34,0 2.49,-0.34 3.43,-1.01 0.94,-0.67 1.41,-1.49 1.41,-2.45 0,-0.96 -0.47,-1.78 -1.41,-2.45 -0.94,-0.67 -2.09,-1.01 -3.43,-1.01zm12.51 5.97c0.4,0.57 1.06,0.86 1.99,0.86 0.62,0 1.14,-0.15 1.56,-0.45 0.42,-0.3 0.63,-0.67 0.63,-1.12 0,-0.36 -0.15,-0.68 -0.44,-0.96 -0.29,-0.28 -0.66,-0.46 -1.1,-0.55l-1.44 -0.3c-0.72,-0.16 -1.31,-0.44 -1.75,-0.85 -0.44,-0.41 -0.66,-0.87 -0.66,-1.38 0,-0.65 0.32,-1.19 0.95,-1.64 0.63,-0.45 1.4,-0.68 2.3,-0.68 0.64,0 1.24,0.13 1.79,0.38 0.55,0.26 0.95,0.6 1.19,1.03l-1.51 0.45c-0.24,-0.46 -0.73,-0.69 -1.48,-0.69 -0.46,0 -0.84,0.12 -1.14,0.34 -0.3,0.23 -0.45,0.49 -0.45,0.8 0,0.57 0.39,0.94 1.17,1.09l1.44 0.3c0.82,0.16 1.49,0.48 2,0.97 0.51,0.49 0.77,1.04 0.77,1.67 0,0.52 -0.17,0.98 -0.51,1.4 -0.34,0.41 -0.81,0.74 -1.39,0.99 -0.58,0.25 -1.23,0.37 -1.95,0.37 -0.72,0 -1.39,-0.13 -1.99,-0.4 -0.6,-0.27 -1.08,-0.63 -1.44,-1.08l1.44 -0.56zm10.85 0.69l1.66 0 0 1.18 -1.66 0 0 -1.18zm18.17 -6.17l-1.29 0.73c-0.99,-0.82 -2.22,-1.22 -3.7,-1.22 -1.36,0 -2.51,0.33 -3.45,1 -0.93,0.67 -1.4,1.49 -1.4,2.46 0,0.97 0.47,1.79 1.4,2.46 0.93,0.67 2.08,1 3.45,1 1.46,0 2.67,-0.38 3.61,-1.16l1.32 0.73c-0.62,0.52 -1.35,0.91 -2.2,1.19 -0.84,0.28 -1.76,0.42 -2.74,0.42 -1.77,0 -3.29,-0.46 -4.58,-1.37 -1.28,-0.92 -1.93,-2.01 -1.93,-3.26 0,-1.29 0.64,-2.38 1.93,-3.29 1.28,-0.9 2.81,-1.35 4.58,-1.35 1.02,0 1.95,0.14 2.8,0.43 0.84,0.29 1.58,0.7 2.2,1.24zm11.07 -1.68c1.81,0 3.34,0.45 4.6,1.35 1.27,0.9 1.9,2 1.9,3.29 0,1.26 -0.63,2.35 -1.9,3.26 -1.26,0.91 -2.8,1.37 -4.6,1.37 -1.77,0 -3.29,-0.46 -4.58,-1.37 -1.28,-0.92 -1.93,-2.01 -1.93,-3.26 0,-1.29 0.64,-2.38 1.93,-3.29 1.28,-0.9 2.81,-1.35 4.58,-1.35zm0 1.18c-1.36,0 -2.51,0.33 -3.45,1 -0.93,0.67 -1.4,1.49 -1.4,2.46 0,0.97 0.47,1.79 1.4,2.46 0.93,0.67 2.08,1 3.45,1 1.34,0 2.49,-0.34 3.43,-1.01 0.94,-0.67 1.42,-1.49 1.42,-2.45 0,-0.96 -0.47,-1.78 -1.42,-2.45 -0.94,-0.67 -2.09,-1.01 -3.43,-1.01zm29 7.84l-1.65 0 0 -5.6c0,-0.67 -0.31,-1.21 -0.93,-1.62 -0.62,-0.41 -1.35,-0.61 -2.2,-0.61 -0.82,0 -1.55,0.2 -2.18,0.61 -0.63,0.41 -0.95,0.95 -0.95,1.62l0 5.6 -1.65 0 0 -5.6c0,-0.67 -0.31,-1.21 -0.93,-1.62 -0.62,-0.41 -1.35,-0.61 -2.2,-0.61 -0.82,0 -1.55,0.2 -2.18,0.61 -0.63,0.41 -0.95,0.95 -0.95,1.62l0 5.6 -1.66 0 0 -8.78 1.39 0.77c0.94,-0.67 2.08,-1.01 3.4,-1.01 0.8,0 1.56,0.14 2.29,0.41 0.72,0.27 1.28,0.63 1.68,1.07 0.96,-0.99 2.28,-1.48 3.95,-1.48 0.7,0 1.34,0.09 1.91,0.28 0.57,0.19 1.06,0.43 1.47,0.72 0.41,0.29 0.75,0.65 1.01,1.05 0.26,0.41 0.39,0.86 0.39,1.36l0 5.6zm5.46 -1.18l1.66 0 0 1.18 -1.66 0 0 -1.18zm15.22 -6.66c-1.34,0 -2.49,0.34 -3.43,1.01 -0.94,0.67 -1.41,1.49 -1.41,2.45 0,0.96 0.47,1.78 1.41,2.45 0.94,0.67 2.09,1.01 3.43,1.01 1.37,0 2.52,-0.33 3.45,-1 0.93,-0.67 1.4,-1.49 1.4,-2.46 0,-0.98 -0.47,-1.8 -1.4,-2.46 -0.93,-0.66 -2.08,-1 -3.45,-1zm-6.5 -5.58l-2.04 0 0.9 -1.18 2.8 0 0 7.13c1.3,-1.03 2.92,-1.55 4.84,-1.55 1.81,0 3.34,0.45 4.61,1.35 1.26,0.9 1.9,2 1.9,3.29 0,1.26 -0.63,2.35 -1.9,3.26 -1.27,0.91 -2.8,1.37 -4.61,1.37 -1.82,0 -3.39,-0.48 -4.69,-1.44l-1.81 1.18 0 -13.42zm24.46 4.62l-0.75 1.05c-0.24,-0.06 -0.53,-0.08 -0.87,-0.08 -0.92,0 -1.68,0.22 -2.27,0.67 -0.59,0.44 -0.89,0.97 -0.89,1.59l0 5.58 -1.66 0 0 -8.78 1.39 0.8c0.92,-0.69 2.07,-1.03 3.43,-1.03 0.6,0 1.14,0.07 1.62,0.22z"/>
 </g>
</svg>
