<?xml version="1.0" encoding="UTF-8"?>
<!DOCTYPE svg PUBLIC "-//W3C//DTD SVG 1.1//EN" "http://www.w3.org/Graphics/SVG/1.1/DTD/svg11.dtd">
<!-- Creator: CorelDRAW 2020 (64 Bit) -->
<svg xmlns="http://www.w3.org/2000/svg" xml:space="preserve" width="1665px" height="373px" version="1.1" style="shape-rendering:geometricPrecision; text-rendering:geometricPrecision; image-rendering:optimizeQuality; fill-rule:evenodd; clip-rule:evenodd"
viewBox="0 0 678.13 151.79"
 xmlns:xlink="http://www.w3.org/1999/xlink"
 xmlns:xodm="http://www.corel.com/coreldraw/odm/2003">
 <defs>
  <style type="text/css">
   <![CDATA[
    .fil0 {fill:#666699;fill-rule:nonzero}
    .fil1 {fill:#7657A6;fill-rule:nonzero}
   ]]>
  </style>
 </defs>
 <g id="Layer_x0020_1">
  <metadata id="CorelCorpID_0Corel-Layer"/>
  <path class="fil0" d="M95.4 94.43l-17.05 29.41c-3.2,5.53 -7.24,10.31 -11.89,14.25 -14.79,12.59 -35.65,16.72 -54.7,9.59l-11.76 -4.41 22.84 -39.24 20.26 -34.83c4.93,-2.46 10.5,-3.85 16.39,-3.85 17.66,0 32.41,12.47 35.91,29.08z"/>
  <path class="fil0" d="M273.98 122.3c0,16.29 -13.21,29.49 -29.5,29.49 -16.29,0 -29.49,-13.2 -29.49,-29.49 0,-16.29 13.2,-29.5 29.49,-29.5 16.29,0 29.5,13.21 29.5,29.5z"/>
  <path class="fil1" d="M251.69 74.45l-7.42 -4.68c-13.92,-8.79 -32.37,-4.21 -40.55,10.09l-32.38 56.52c-11.19,19.54 -39.4,19.45 -50.46,-0.15l-24.53 -43.43 -0.95 1.63c-3.5,-16.61 -18.25,-29.09 -35.91,-29.09 -5.89,0 -11.46,1.4 -16.4,3.87l27.93 -48.01c11.4,-19.59 39.74,-19.49 51,0.19l23.82 41.59 23.78 -41.15c11.48,-19.85 40.15,-19.86 51.64,0l30.43 52.62z"/>
  <path class="fil1" d="M337.98 66.11c-7.79,5.74 -17.18,8.61 -28.11,8.61 -10.58,0 -19.72,-2.75 -27.39,-8.22 -7.68,-5.5 -11.53,-12.02 -11.53,-19.55 0,-7.72 3.85,-14.27 11.53,-19.69 7.67,-5.39 16.81,-8.1 27.39,-8.1 10.93,0 20.32,2.87 28.11,8.63l10.81 -7.21 0 52.6 -10.81 -7.07zm-28.11 -39.87c-8.16,0 -15.04,2 -20.63,5.97 -5.59,3.99 -8.39,8.9 -8.39,14.74 0,5.82 2.8,10.73 8.39,14.72 5.59,3.99 12.47,5.97 20.63,5.97 8.05,0 14.9,-2.02 20.54,-6.03 5.65,-4.03 8.48,-8.92 8.48,-14.66 0,-5.76 -2.83,-10.65 -8.48,-14.66 -5.64,-4.03 -12.49,-6.05 -20.54,-6.05zm83.21 66.6c5.76,5.58 13.75,8.37 23.96,8.37 8.16,0 15.15,-1.99 20.98,-5.98 5.85,-3.99 8.76,-9.06 8.76,-15.23l0 -14.54c-7.82,6.17 -17.5,9.26 -29.02,9.26 -10.59,0 -19.72,-2.75 -27.4,-8.22 -7.67,-5.5 -11.52,-12.02 -11.52,-19.55 0,-7.72 3.85,-14.27 11.52,-19.69 7.68,-5.39 16.81,-8.1 27.4,-8.1 10.93,0 20.31,2.87 28.1,8.63l10.82 -7.21 0 59.42c0,7.88 -3.91,14.55 -11.7,20.05 -7.82,5.48 -17.12,8.23 -27.94,8.23 -12.98,0 -23.48,-3.69 -31.56,-11.06l7.6 -4.38zm24.68 -66.6c-8.16,0 -15.04,2 -20.63,5.97 -5.6,3.99 -8.39,8.9 -8.39,14.74 0,5.82 2.79,10.73 8.39,14.72 5.59,3.99 12.47,5.97 20.63,5.97 8.04,0 14.89,-2.02 20.54,-6.03 5.65,-4.03 8.48,-8.92 8.48,-14.66 0,-5.76 -2.83,-10.65 -8.48,-14.66 -5.65,-4.03 -12.5,-6.05 -20.54,-6.05zm71.65 -5.66l9.92 0 0 52.6 -9.92 0 0 -52.6zm0 -20.58l9.92 0 0 7.72 -9.92 0 0 -7.72zm78.86 19.16c10.82,0 20,2.71 27.57,8.1 7.59,5.42 11.35,11.97 11.35,19.69 0,7.53 -3.76,14.05 -11.35,19.55 -7.57,5.47 -16.75,8.22 -27.57,8.22 -10.58,0 -19.71,-2.75 -27.39,-8.22 -7.68,-5.5 -11.53,-12.02 -11.53,-19.55 0,-7.72 3.85,-14.27 11.53,-19.69 7.68,-5.39 16.81,-8.1 27.39,-8.1zm0 7.08c-8.16,0 -15.03,2 -20.63,5.97 -5.59,3.99 -8.39,8.9 -8.39,14.74 0,5.82 2.8,10.73 8.39,14.72 5.6,3.99 12.47,5.97 20.63,5.97 8.05,0 14.9,-2.02 20.55,-6.03 5.65,-4.03 8.47,-8.92 8.47,-14.66 0,-5.76 -2.82,-10.65 -8.47,-14.66 -5.65,-4.03 -12.5,-6.05 -20.55,-6.05zm74.9 35.76c2.4,3.42 6.37,5.13 11.9,5.13 3.71,0 6.85,-0.9 9.36,-2.69 2.54,-1.81 3.8,-4.03 3.8,-6.7 0,-2.14 -0.89,-4.05 -2.63,-5.72 -1.74,-1.67 -3.94,-2.77 -6.56,-3.28l-8.65 -1.79c-4.33,-0.96 -7.82,-2.65 -10.47,-5.09 -2.62,-2.44 -3.97,-5.21 -3.97,-8.29 0,-3.86 1.92,-7.14 5.68,-9.83 3.8,-2.71 8.39,-4.05 13.78,-4.05 3.86,0 7.42,0.77 10.73,2.3 3.31,1.55 5.68,3.6 7.14,6.17l-9.02 2.71c-1.46,-2.75 -4.39,-4.12 -8.85,-4.12 -2.73,0 -5.02,0.7 -6.84,2.06 -1.8,1.36 -2.69,2.95 -2.69,4.76 0,3.43 2.34,5.6 7.02,6.56l8.65 1.79c4.94,0.96 8.93,2.87 11.98,5.8 3.08,2.92 4.6,6.26 4.6,10.02 0,3.1 -1.03,5.89 -3.06,8.37 -2.05,2.48 -4.82,4.46 -8.3,5.91 -3.48,1.46 -7.39,2.19 -11.7,2.19 -4.33,0 -8.3,-0.79 -11.9,-2.38 -3.59,-1.59 -6.47,-3.77 -8.64,-6.49l8.64 -3.34z"/>
  <path class="fil1" d="M286.48 134.15l0 -1.81c0.2,0.19 0.45,0.35 0.74,0.49 0.28,0.15 0.59,0.28 0.91,0.38 0.32,0.09 0.63,0.17 0.96,0.23 0.32,0.05 0.62,0.08 0.89,0.08 0.94,0 1.64,-0.17 2.11,-0.52 0.46,-0.35 0.69,-0.86 0.69,-1.51 0,-0.35 -0.07,-0.66 -0.23,-0.92 -0.15,-0.26 -0.37,-0.5 -0.64,-0.72 -0.27,-0.21 -0.6,-0.42 -0.97,-0.62 -0.37,-0.19 -0.78,-0.4 -1.2,-0.62 -0.46,-0.23 -0.89,-0.47 -1.28,-0.7 -0.4,-0.24 -0.74,-0.5 -1.03,-0.79 -0.29,-0.28 -0.52,-0.61 -0.69,-0.97 -0.16,-0.36 -0.25,-0.78 -0.25,-1.27 0,-0.6 0.13,-1.11 0.4,-1.55 0.26,-0.45 0.6,-0.81 1.03,-1.09 0.42,-0.29 0.9,-0.5 1.45,-0.64 0.54,-0.14 1.1,-0.21 1.66,-0.21 1.29,0 2.23,0.15 2.82,0.46l0 1.72c-0.77,-0.53 -1.76,-0.8 -2.97,-0.8 -0.34,0 -0.67,0.03 -1,0.1 -0.34,0.07 -0.64,0.19 -0.9,0.35 -0.26,0.16 -0.47,0.36 -0.64,0.61 -0.16,0.25 -0.24,0.55 -0.24,0.91 0,0.34 0.06,0.63 0.19,0.87 0.12,0.24 0.3,0.47 0.55,0.66 0.24,0.21 0.53,0.4 0.88,0.59 0.35,0.19 0.76,0.39 1.21,0.62 0.47,0.23 0.91,0.47 1.33,0.73 0.42,0.25 0.78,0.53 1.1,0.85 0.32,0.31 0.57,0.65 0.75,1.03 0.19,0.37 0.28,0.8 0.28,1.29 0,0.65 -0.13,1.19 -0.38,1.64 -0.25,0.44 -0.59,0.81 -1.02,1.09 -0.43,0.28 -0.92,0.48 -1.48,0.6 -0.56,0.13 -1.15,0.19 -1.77,0.19 -0.2,0 -0.46,-0.02 -0.76,-0.05 -0.31,-0.03 -0.61,-0.08 -0.93,-0.15 -0.32,-0.06 -0.61,-0.14 -0.9,-0.23 -0.28,-0.1 -0.5,-0.2 -0.67,-0.32zm13.33 -12.54l0 1.31 -1.27 0 0 10.45 1.27 0 0 1.31 -4.07 0 0 -1.31 1.27 0 0 -10.45 -1.27 0 0 -1.31 4.07 0zm1.55 12.54l0 -1.81c0.2,0.19 0.45,0.35 0.74,0.49 0.29,0.15 0.59,0.28 0.91,0.38 0.32,0.09 0.64,0.17 0.96,0.23 0.32,0.05 0.62,0.08 0.9,0.08 0.93,0 1.64,-0.17 2.1,-0.52 0.46,-0.35 0.7,-0.86 0.7,-1.51 0,-0.35 -0.08,-0.66 -0.24,-0.92 -0.15,-0.26 -0.36,-0.5 -0.64,-0.72 -0.27,-0.21 -0.59,-0.42 -0.97,-0.62 -0.37,-0.19 -0.77,-0.4 -1.2,-0.62 -0.46,-0.23 -0.88,-0.47 -1.28,-0.7 -0.39,-0.24 -0.73,-0.5 -1.03,-0.79 -0.28,-0.28 -0.51,-0.61 -0.68,-0.97 -0.17,-0.36 -0.25,-0.78 -0.25,-1.27 0,-0.6 0.13,-1.11 0.39,-1.55 0.26,-0.45 0.6,-0.81 1.03,-1.09 0.43,-0.29 0.91,-0.5 1.45,-0.64 0.55,-0.14 1.1,-0.21 1.67,-0.21 1.28,0 2.22,0.15 2.81,0.46l0 1.72c-0.77,-0.53 -1.76,-0.8 -2.97,-0.8 -0.33,0 -0.66,0.03 -1,0.1 -0.33,0.07 -0.63,0.19 -0.89,0.35 -0.26,0.16 -0.48,0.36 -0.64,0.61 -0.17,0.25 -0.25,0.55 -0.25,0.91 0,0.34 0.07,0.63 0.19,0.87 0.12,0.24 0.31,0.47 0.55,0.66 0.24,0.21 0.54,0.4 0.89,0.59 0.35,0.19 0.75,0.39 1.2,0.62 0.47,0.23 0.92,0.47 1.33,0.73 0.42,0.25 0.79,0.53 1.1,0.85 0.32,0.31 0.57,0.65 0.76,1.03 0.18,0.37 0.27,0.8 0.27,1.29 0,0.65 -0.12,1.19 -0.37,1.64 -0.26,0.44 -0.6,0.81 -1.02,1.09 -0.43,0.28 -0.93,0.48 -1.48,0.6 -0.56,0.13 -1.15,0.19 -1.77,0.19 -0.21,0 -0.46,-0.02 -0.77,-0.05 -0.3,-0.03 -0.61,-0.08 -0.93,-0.15 -0.31,-0.06 -0.61,-0.14 -0.89,-0.23 -0.29,-0.1 -0.51,-0.2 -0.68,-0.32zm18.26 -11.16l-3.77 0 0 11.69 -1.53 0 0 -11.69 -3.77 0 0 -1.38 9.07 0 0 1.38zm8.98 11.69l-6.93 0 0 -13.07 6.63 0 0 1.38 -5.1 0 0 4.35 4.72 0 0 1.38 -4.72 0 0 4.58 5.4 0 0 1.38zm15.84 0l-1.53 0 0 -8.77c0,-0.69 0.05,-1.54 0.14,-2.54l-0.04 0c-0.15,0.59 -0.28,1.01 -0.39,1.26l-4.47 10.05 -0.75 0 -4.45 -9.97c-0.13,-0.29 -0.26,-0.74 -0.4,-1.34l-0.03 0c0.04,0.52 0.07,1.38 0.07,2.56l0 8.75 -1.48 0 0 -13.07 2.02 0 4.01 9.11c0.31,0.7 0.51,1.22 0.6,1.57l0.06 0c0.26,-0.72 0.47,-1.25 0.63,-1.6l4.09 -9.08 1.92 0 0 13.07zm13.56 0l-1.7 0 -1.38 -3.66 -5.56 0 -1.31 3.66 -1.7 0 5.02 -13.07 1.59 0 5.04 13.07zm-3.58 -5.04l-2.05 -5.58c-0.07,-0.18 -0.14,-0.47 -0.21,-0.86l-0.04 0c-0.07,0.36 -0.14,0.66 -0.22,0.88l-2.03 5.56 4.55 0zm10.61 5.04l0 -13.07 3.6 0c4.6,0 6.9,2.12 6.9,6.37 0,2.02 -0.63,3.64 -1.91,4.86 -1.28,1.22 -2.99,1.84 -5.14,1.84l-3.45 0zm1.53 -11.69l0 10.31 1.94 0c1.71,0 3.05,-0.47 4,-1.38 0.95,-0.92 1.43,-2.22 1.43,-3.9 0,-3.35 -1.78,-5.03 -5.34,-5.03l-2.03 0zm18.48 11.69l-6.93 0 0 -13.07 6.63 0 0 1.38 -5.1 0 0 4.35 4.72 0 0 1.38 -4.72 0 0 4.58 5.4 0 0 1.38zm17.39 -0.89c-1.31,0.74 -2.77,1.11 -4.37,1.11 -1.87,0 -3.37,-0.6 -4.53,-1.8 -1.15,-1.21 -1.72,-2.8 -1.72,-4.78 0,-2.03 0.64,-3.69 1.92,-4.99 1.28,-1.29 2.89,-1.94 4.86,-1.94 1.42,0 2.61,0.23 3.58,0.69l0 1.7c-1.06,-0.68 -2.31,-1.01 -3.76,-1.01 -1.46,0 -2.66,0.5 -3.59,1.51 -0.94,1.01 -1.41,2.32 -1.41,3.92 0,1.66 0.44,2.96 1.31,3.9 0.86,0.95 2.04,1.42 3.53,1.42 1.02,0 1.9,-0.2 2.65,-0.61l0 -3.67 -2.86 0 0 -1.38 4.39 0 0 5.93zm9.96 0.89l-6.92 0 0 -13.07 6.63 0 0 1.38 -5.1 0 0 4.35 4.72 0 0 1.38 -4.72 0 0 4.58 5.39 0 0 1.38zm1.91 -0.53l0 -1.81c0.2,0.19 0.45,0.35 0.74,0.49 0.28,0.15 0.59,0.28 0.91,0.38 0.32,0.09 0.63,0.17 0.96,0.23 0.32,0.05 0.62,0.08 0.89,0.08 0.94,0 1.64,-0.17 2.11,-0.52 0.46,-0.35 0.69,-0.86 0.69,-1.51 0,-0.35 -0.07,-0.66 -0.23,-0.92 -0.15,-0.26 -0.37,-0.5 -0.64,-0.72 -0.27,-0.21 -0.6,-0.42 -0.97,-0.62 -0.37,-0.19 -0.78,-0.4 -1.2,-0.62 -0.46,-0.23 -0.89,-0.47 -1.28,-0.7 -0.4,-0.24 -0.74,-0.5 -1.03,-0.79 -0.29,-0.28 -0.52,-0.61 -0.69,-0.97 -0.16,-0.36 -0.25,-0.78 -0.25,-1.27 0,-0.6 0.13,-1.11 0.4,-1.55 0.26,-0.45 0.6,-0.81 1.03,-1.09 0.42,-0.29 0.9,-0.5 1.45,-0.64 0.54,-0.14 1.1,-0.21 1.66,-0.21 1.29,0 2.23,0.15 2.82,0.46l0 1.72c-0.77,-0.53 -1.76,-0.8 -2.97,-0.8 -0.34,0 -0.67,0.03 -1,0.1 -0.34,0.07 -0.64,0.19 -0.9,0.35 -0.26,0.16 -0.47,0.36 -0.64,0.61 -0.16,0.25 -0.24,0.55 -0.24,0.91 0,0.34 0.06,0.63 0.19,0.87 0.12,0.24 0.3,0.47 0.55,0.66 0.24,0.21 0.53,0.4 0.88,0.59 0.35,0.19 0.76,0.39 1.21,0.62 0.47,0.23 0.91,0.47 1.33,0.73 0.42,0.25 0.78,0.53 1.1,0.85 0.32,0.31 0.57,0.65 0.75,1.03 0.19,0.37 0.28,0.8 0.28,1.29 0,0.65 -0.13,1.19 -0.38,1.64 -0.25,0.44 -0.59,0.81 -1.02,1.09 -0.43,0.28 -0.92,0.48 -1.48,0.6 -0.56,0.13 -1.15,0.19 -1.77,0.19 -0.2,0 -0.46,-0.02 -0.76,-0.05 -0.31,-0.03 -0.61,-0.08 -0.93,-0.15 -0.32,-0.06 -0.61,-0.14 -0.9,-0.23 -0.28,-0.1 -0.5,-0.2 -0.67,-0.32zm18.25 -11.16l-3.77 0 0 11.69 -1.53 0 0 -11.69 -3.77 0 0 -1.38 9.07 0 0 1.38zm12.18 11.69l-1.7 0 -1.38 -3.66 -5.56 0 -1.31 3.66 -1.69 0 5.02 -13.07 1.58 0 5.04 13.07zm-3.57 -5.04l-2.06 -5.58c-0.07,-0.18 -0.14,-0.47 -0.21,-0.86l-0.04 0c-0.07,0.36 -0.14,0.66 -0.21,0.88l-2.04 5.56 4.56 0zm0.63 -11.39c0,0.64 -0.14,1.16 -0.44,1.56 -0.28,0.4 -0.68,0.61 -1.18,0.61 -0.43,0 -0.92,-0.16 -1.47,-0.47 -0.47,-0.26 -0.84,-0.39 -1.09,-0.39 -0.54,0 -0.8,0.34 -0.8,1.02l-0.86 0c0,-0.64 0.15,-1.16 0.44,-1.55 0.29,-0.4 0.7,-0.59 1.22,-0.59 0.39,0 0.85,0.15 1.36,0.47 0.45,0.26 0.84,0.39 1.17,0.39 0.51,0 0.76,-0.35 0.76,-1.05l0.89 0zm10.12 16.65c-1.85,0 -3.34,-0.61 -4.45,-1.83 -1.12,-1.22 -1.67,-2.81 -1.67,-4.77 0,-2.1 0.57,-3.78 1.7,-5.03 1.14,-1.26 2.68,-1.88 4.64,-1.88 1.8,0 3.26,0.6 4.36,1.82 1.1,1.22 1.65,2.81 1.65,4.77 0,2.13 -0.56,3.82 -1.69,5.06 -1.13,1.24 -2.64,1.86 -4.54,1.86zm0.11 -12.13c-1.37,0 -2.49,0.49 -3.34,1.49 -0.86,0.98 -1.29,2.29 -1.29,3.9 0,1.61 0.42,2.9 1.26,3.89 0.83,0.98 1.92,1.47 3.26,1.47 1.43,0 2.56,-0.47 3.39,-1.4 0.82,-0.94 1.24,-2.25 1.24,-3.94 0,-1.72 -0.4,-3.06 -1.21,-4 -0.8,-0.94 -1.9,-1.41 -3.31,-1.41zm15.34 6.96l0 4.95 -1.53 0 0 -13.07 3.59 0c1.4,0 2.48,0.34 3.25,1.02 0.76,0.68 1.15,1.64 1.15,2.88 0,1.23 -0.43,2.25 -1.28,3.04 -0.86,0.79 -2.01,1.18 -3.46,1.18l-1.72 0zm0 -6.74l0 5.36 1.6 0c1.06,0 1.86,-0.24 2.42,-0.73 0.56,-0.48 0.83,-1.16 0.83,-2.04 0,-1.73 -1.02,-2.59 -3.06,-2.59l-1.79 0zm15.85 11.69l-6.93 0 0 -13.07 6.63 0 0 1.38 -5.1 0 0 4.35 4.72 0 0 1.38 -4.72 0 0 4.58 5.4 0 0 1.38zm1.9 -0.53l0 -1.81c0.2,0.19 0.45,0.35 0.74,0.49 0.29,0.15 0.59,0.28 0.91,0.38 0.32,0.09 0.64,0.17 0.96,0.23 0.32,0.05 0.62,0.08 0.89,0.08 0.94,0 1.64,-0.17 2.11,-0.52 0.46,-0.35 0.69,-0.86 0.69,-1.51 0,-0.35 -0.07,-0.66 -0.23,-0.92 -0.15,-0.26 -0.37,-0.5 -0.64,-0.72 -0.27,-0.21 -0.6,-0.42 -0.97,-0.62 -0.37,-0.19 -0.78,-0.4 -1.2,-0.62 -0.46,-0.23 -0.88,-0.47 -1.28,-0.7 -0.39,-0.24 -0.74,-0.5 -1.03,-0.79 -0.29,-0.28 -0.52,-0.61 -0.69,-0.97 -0.16,-0.36 -0.25,-0.78 -0.25,-1.27 0,-0.6 0.13,-1.11 0.4,-1.55 0.26,-0.45 0.6,-0.81 1.03,-1.09 0.42,-0.29 0.9,-0.5 1.45,-0.64 0.54,-0.14 1.1,-0.21 1.66,-0.21 1.29,0 2.23,0.15 2.82,0.46l0 1.72c-0.77,-0.53 -1.76,-0.8 -2.97,-0.8 -0.34,0 -0.67,0.03 -1,0.1 -0.34,0.07 -0.64,0.19 -0.9,0.35 -0.26,0.16 -0.47,0.36 -0.63,0.61 -0.17,0.25 -0.25,0.55 -0.25,0.91 0,0.34 0.06,0.63 0.19,0.87 0.12,0.24 0.3,0.47 0.55,0.66 0.24,0.21 0.53,0.4 0.88,0.59 0.35,0.19 0.76,0.39 1.21,0.62 0.47,0.23 0.91,0.47 1.33,0.73 0.42,0.25 0.79,0.53 1.1,0.85 0.32,0.31 0.57,0.65 0.75,1.03 0.19,0.37 0.28,0.8 0.28,1.29 0,0.65 -0.13,1.19 -0.38,1.64 -0.25,0.44 -0.59,0.81 -1.02,1.09 -0.43,0.28 -0.92,0.48 -1.48,0.6 -0.56,0.13 -1.15,0.19 -1.77,0.19 -0.2,0 -0.46,-0.02 -0.76,-0.05 -0.31,-0.03 -0.61,-0.08 -0.93,-0.15 -0.31,-0.06 -0.61,-0.14 -0.9,-0.23 -0.28,-0.1 -0.5,-0.2 -0.67,-0.32zm9.91 0l0 -1.81c0.21,0.19 0.46,0.35 0.75,0.49 0.28,0.15 0.59,0.28 0.9,0.38 0.32,0.09 0.64,0.17 0.97,0.23 0.32,0.05 0.61,0.08 0.89,0.08 0.94,0 1.64,-0.17 2.1,-0.52 0.47,-0.35 0.7,-0.86 0.7,-1.51 0,-0.35 -0.08,-0.66 -0.23,-0.92 -0.15,-0.26 -0.37,-0.5 -0.64,-0.72 -0.28,-0.21 -0.6,-0.42 -0.97,-0.62 -0.38,-0.19 -0.78,-0.4 -1.21,-0.62 -0.45,-0.23 -0.88,-0.47 -1.27,-0.7 -0.4,-0.24 -0.74,-0.5 -1.03,-0.79 -0.29,-0.28 -0.52,-0.61 -0.69,-0.97 -0.16,-0.36 -0.25,-0.78 -0.25,-1.27 0,-0.6 0.13,-1.11 0.39,-1.55 0.26,-0.45 0.61,-0.81 1.03,-1.09 0.43,-0.29 0.91,-0.5 1.46,-0.64 0.54,-0.14 1.09,-0.21 1.66,-0.21 1.29,0 2.23,0.15 2.81,0.46l0 1.72c-0.77,-0.53 -1.76,-0.8 -2.97,-0.8 -0.33,0 -0.66,0.03 -1,0.1 -0.33,0.07 -0.63,0.19 -0.89,0.35 -0.26,0.16 -0.47,0.36 -0.64,0.61 -0.16,0.25 -0.24,0.55 -0.24,0.91 0,0.34 0.06,0.63 0.18,0.87 0.13,0.24 0.31,0.47 0.55,0.66 0.25,0.21 0.54,0.4 0.89,0.59 0.35,0.19 0.75,0.39 1.21,0.62 0.46,0.23 0.91,0.47 1.33,0.73 0.42,0.25 0.78,0.53 1.1,0.85 0.31,0.31 0.56,0.65 0.75,1.03 0.18,0.37 0.28,0.8 0.28,1.29 0,0.65 -0.13,1.19 -0.38,1.64 -0.25,0.44 -0.59,0.81 -1.02,1.09 -0.43,0.28 -0.92,0.48 -1.48,0.6 -0.56,0.13 -1.15,0.19 -1.77,0.19 -0.2,0 -0.46,-0.02 -0.76,-0.05 -0.31,-0.03 -0.62,-0.08 -0.93,-0.15 -0.32,-0.06 -0.62,-0.14 -0.9,-0.23 -0.28,-0.1 -0.51,-0.2 -0.68,-0.32zm15.8 0.75c-1.85,0 -3.34,-0.61 -4.45,-1.83 -1.12,-1.22 -1.67,-2.81 -1.67,-4.77 0,-2.1 0.57,-3.78 1.7,-5.03 1.14,-1.26 2.68,-1.88 4.64,-1.88 1.8,0 3.26,0.6 4.36,1.82 1.1,1.22 1.65,2.81 1.65,4.77 0,2.13 -0.56,3.82 -1.69,5.06 -1.13,1.24 -2.64,1.86 -4.54,1.86zm0.11 -12.13c-1.37,0 -2.49,0.49 -3.34,1.49 -0.86,0.98 -1.29,2.29 -1.29,3.9 0,1.61 0.42,2.9 1.26,3.89 0.83,0.98 1.92,1.47 3.26,1.47 1.43,0 2.56,-0.47 3.39,-1.4 0.82,-0.94 1.24,-2.25 1.24,-3.94 0,-1.72 -0.4,-3.06 -1.21,-4 -0.8,-0.94 -1.9,-1.41 -3.31,-1.41zm18.82 11.91l-1.7 0 -1.38 -3.66 -5.56 0 -1.31 3.66 -1.7 0 5.02 -13.07 1.59 0 5.04 13.07zm-3.58 -5.04l-2.05 -5.58c-0.07,-0.18 -0.14,-0.47 -0.21,-0.86l-0.04 0c-0.07,0.36 -0.14,0.66 -0.22,0.88l-2.03 5.56 4.55 0zm12.27 5.04l-6.78 0 0 -13.07 1.53 0 0 11.69 5.25 0 0 1.38zm14.05 0l-6.93 0 0 -13.07 6.63 0 0 1.38 -5.1 0 0 4.35 4.72 0 0 1.38 -4.72 0 0 4.58 5.4 0 0 1.38zm14.55 0l-6.92 0 0 -13.07 6.62 0 0 1.38 -5.09 0 0 4.35 4.72 0 0 1.38 -4.72 0 0 4.58 5.39 0 0 1.38zm15.84 0l-1.53 0 0 -8.77c0,-0.69 0.05,-1.54 0.14,-2.54l-0.04 0c-0.14,0.59 -0.27,1.01 -0.39,1.26l-4.47 10.05 -0.74 0 -4.46 -9.97c-0.13,-0.29 -0.26,-0.74 -0.39,-1.34l-0.04 0c0.05,0.52 0.07,1.38 0.07,2.56l0 8.75 -1.47 0 0 -13.07 2.02 0 4.01 9.11c0.31,0.7 0.51,1.22 0.6,1.57l0.05 0c0.26,-0.72 0.47,-1.25 0.63,-1.6l4.09 -9.08 1.92 0 0 13.07zm4.97 -4.95l0 4.95 -1.53 0 0 -13.07 3.59 0c1.39,0 2.48,0.34 3.24,1.02 0.77,0.68 1.16,1.64 1.16,2.88 0,1.23 -0.43,2.25 -1.28,3.04 -0.86,0.79 -2.01,1.18 -3.46,1.18l-1.72 0zm0 -6.74l0 5.36 1.6 0c1.06,0 1.86,-0.24 2.42,-0.73 0.55,-0.48 0.83,-1.16 0.83,-2.04 0,-1.73 -1.02,-2.59 -3.06,-2.59l-1.79 0zm18.29 11.69l-1.83 0 -2.19 -3.67c-0.2,-0.34 -0.39,-0.63 -0.58,-0.87 -0.19,-0.24 -0.38,-0.43 -0.58,-0.59 -0.19,-0.15 -0.41,-0.26 -0.64,-0.33 -0.22,-0.07 -0.48,-0.11 -0.76,-0.11l-1.26 0 0 5.57 -1.53 0 0 -13.07 3.9 0c0.57,0 1.1,0.07 1.58,0.22 0.49,0.14 0.91,0.35 1.26,0.65 0.35,0.29 0.63,0.65 0.83,1.08 0.21,0.44 0.31,0.95 0.31,1.53 0,0.46 -0.07,0.87 -0.21,1.25 -0.14,0.38 -0.33,0.72 -0.59,1.02 -0.25,0.3 -0.55,0.55 -0.91,0.76 -0.35,0.21 -0.76,0.37 -1.2,0.48l0 0.04c0.22,0.1 0.41,0.21 0.57,0.33 0.16,0.13 0.31,0.28 0.46,0.45 0.15,0.17 0.29,0.36 0.43,0.57 0.15,0.22 0.3,0.47 0.48,0.76l2.46 3.93zm-7.84 -11.69l0 4.74 2.08 0c0.38,0 0.73,-0.06 1.06,-0.17 0.32,-0.12 0.61,-0.28 0.84,-0.5 0.24,-0.21 0.43,-0.48 0.56,-0.79 0.13,-0.31 0.2,-0.66 0.2,-1.05 0,-0.7 -0.23,-1.25 -0.68,-1.64 -0.45,-0.39 -1.11,-0.59 -1.96,-0.59l-2.1 0zm16.56 11.69l-6.93 0 0 -13.07 6.63 0 0 1.38 -5.1 0 0 4.35 4.73 0 0 1.38 -4.73 0 0 4.58 5.4 0 0 1.38zm1.9 -0.53l0 -1.81c0.2,0.19 0.45,0.35 0.74,0.49 0.29,0.15 0.59,0.28 0.91,0.38 0.32,0.09 0.64,0.17 0.96,0.23 0.32,0.05 0.62,0.08 0.89,0.08 0.94,0 1.65,-0.17 2.11,-0.52 0.46,-0.35 0.7,-0.86 0.7,-1.51 0,-0.35 -0.08,-0.66 -0.24,-0.92 -0.15,-0.26 -0.36,-0.5 -0.64,-0.72 -0.27,-0.21 -0.6,-0.42 -0.97,-0.62 -0.37,-0.19 -0.77,-0.4 -1.2,-0.62 -0.46,-0.23 -0.88,-0.47 -1.28,-0.7 -0.39,-0.24 -0.73,-0.5 -1.03,-0.79 -0.29,-0.28 -0.52,-0.61 -0.68,-0.97 -0.17,-0.36 -0.25,-0.78 -0.25,-1.27 0,-0.6 0.13,-1.11 0.39,-1.55 0.26,-0.45 0.6,-0.81 1.03,-1.09 0.42,-0.29 0.91,-0.5 1.45,-0.64 0.54,-0.14 1.1,-0.21 1.67,-0.21 1.28,0 2.22,0.15 2.81,0.46l0 1.72c-0.77,-0.53 -1.76,-0.8 -2.97,-0.8 -0.33,0 -0.67,0.03 -1,0.1 -0.33,0.07 -0.63,0.19 -0.9,0.35 -0.26,0.16 -0.47,0.36 -0.63,0.61 -0.17,0.25 -0.25,0.55 -0.25,0.91 0,0.34 0.06,0.63 0.19,0.87 0.12,0.24 0.31,0.47 0.55,0.66 0.24,0.21 0.54,0.4 0.89,0.59 0.34,0.19 0.75,0.39 1.2,0.62 0.47,0.23 0.91,0.47 1.33,0.73 0.42,0.25 0.79,0.53 1.1,0.85 0.32,0.31 0.57,0.65 0.75,1.03 0.19,0.37 0.28,0.8 0.28,1.29 0,0.65 -0.12,1.19 -0.37,1.64 -0.26,0.44 -0.6,0.81 -1.03,1.09 -0.42,0.28 -0.92,0.48 -1.48,0.6 -0.56,0.13 -1.14,0.19 -1.76,0.19 -0.21,0 -0.46,-0.02 -0.77,-0.05 -0.3,-0.03 -0.61,-0.08 -0.93,-0.15 -0.31,-0.06 -0.61,-0.14 -0.89,-0.23 -0.29,-0.1 -0.51,-0.2 -0.68,-0.32zm20.66 0.53l-1.7 0 -1.38 -3.66 -5.56 0 -1.31 3.66 -1.7 0 5.02 -13.07 1.59 0 5.04 13.07zm-3.58 -5.04l-2.05 -5.58c-0.07,-0.18 -0.14,-0.47 -0.22,-0.86l-0.04 0c-0.06,0.36 -0.13,0.66 -0.21,0.88l-2.03 5.56 4.55 0zm14.86 5.04l-1.83 0 -2.19 -3.67c-0.2,-0.34 -0.39,-0.63 -0.58,-0.87 -0.19,-0.24 -0.38,-0.43 -0.58,-0.59 -0.19,-0.15 -0.41,-0.26 -0.64,-0.33 -0.22,-0.07 -0.48,-0.11 -0.76,-0.11l-1.26 0 0 5.57 -1.53 0 0 -13.07 3.9 0c0.57,0 1.1,0.07 1.58,0.22 0.49,0.14 0.9,0.35 1.26,0.65 0.35,0.29 0.63,0.65 0.83,1.08 0.21,0.44 0.3,0.95 0.3,1.53 0,0.46 -0.06,0.87 -0.2,1.25 -0.14,0.38 -0.33,0.72 -0.59,1.02 -0.25,0.3 -0.55,0.55 -0.91,0.76 -0.35,0.21 -0.76,0.37 -1.2,0.48l0 0.04c0.22,0.1 0.41,0.21 0.57,0.33 0.16,0.13 0.31,0.28 0.46,0.45 0.15,0.17 0.29,0.36 0.43,0.57 0.14,0.22 0.3,0.47 0.48,0.76l2.46 3.93zm-7.84 -11.69l0 4.74 2.08 0c0.38,0 0.73,-0.06 1.06,-0.17 0.32,-0.12 0.61,-0.28 0.84,-0.5 0.24,-0.21 0.43,-0.48 0.56,-0.79 0.13,-0.31 0.2,-0.66 0.2,-1.05 0,-0.7 -0.23,-1.25 -0.68,-1.64 -0.45,-0.39 -1.11,-0.59 -1.96,-0.59l-2.1 0zm12.43 -1.38l0 1.31 -1.27 0 0 10.45 1.27 0 0 1.31 -4.07 0 0 -1.31 1.27 0 0 -10.45 -1.27 0 0 -1.31 4.07 0zm12.3 13.07l-1.7 0 -1.38 -3.66 -5.56 0 -1.31 3.66 -1.7 0 5.02 -13.07 1.59 0 5.04 13.07zm-3.58 -5.04l-2.05 -5.58c-0.07,-0.18 -0.14,-0.47 -0.22,-0.86l-0.04 0c-0.06,0.36 -0.13,0.66 -0.21,0.88l-2.03 5.56 4.55 0zm12.26 5.04l-6.77 0 0 -13.07 1.53 0 0 11.69 5.24 0 0 1.38z"/>
 </g>
</svg>
