<?xml version="1.0" encoding="UTF-8"?>
<!DOCTYPE svg PUBLIC "-//W3C//DTD SVG 1.1//EN" "http://www.w3.org/Graphics/SVG/1.1/DTD/svg11.dtd">
<!-- Creator: CorelDRAW 2020 (64 Bit) -->
<svg xmlns="http://www.w3.org/2000/svg" xml:space="preserve" width="56.9652mm" height="30.1946mm" version="1.1" style="shape-rendering:geometricPrecision; text-rendering:geometricPrecision; image-rendering:optimizeQuality; fill-rule:evenodd; clip-rule:evenodd"
viewBox="0 0 450.31 238.69"
 xmlns:xlink="http://www.w3.org/1999/xlink"
 xmlns:xodm="http://www.corel.com/coreldraw/odm/2003">
 <defs>
  <style type="text/css">
   <![CDATA[
    .fil0 {fill:whitesmoke;fill-rule:nonzero}
    .fil1 {fill:#FAFAFA;fill-rule:nonzero}
   ]]>
  </style>
 </defs>
 <g id="Layer_x0020_1">
  <metadata id="CorelCorpID_0Corel-Layer"/>
  <path class="fil0" d="M156.8 144.41l-28.03 48.34c-5.27,9.08 -11.91,16.94 -19.54,23.42 -24.31,20.69 -58.59,27.47 -89.91,15.75l-19.33 -7.24 37.54 -64.5 33.29 -57.24c8.11,-4.05 17.26,-6.34 26.94,-6.34 29.03,0 53.27,20.5 59.03,47.81z"/>
  <path class="fil0" d="M450.31 190.21c0,26.77 -21.7,48.48 -48.48,48.48 -26.77,0 -48.48,-21.7 -48.48,-48.48 0,-26.77 21.7,-48.48 48.48,-48.48 26.78,0 48.48,21.7 48.48,48.48z"/>
  <path class="fil1" d="M413.68 111.57l-12.19 -7.69c-22.89,-14.45 -53.21,-6.91 -66.66,16.58l-53.22 92.9c-18.39,32.11 -64.74,31.97 -82.94,-0.26l-40.31 -71.37 -1.56 2.68c-5.76,-27.31 -30,-47.81 -59.02,-47.81 -9.68,0 -18.84,2.29 -26.95,6.35l45.9 -78.9c18.73,-32.2 65.31,-32.04 83.82,0.3l39.14 68.36 39.09 -67.63c18.87,-32.63 65.98,-32.65 84.87,0l50.02 86.48z"/>
 </g>
</svg>
