<?xml version="1.0" encoding="UTF-8"?>
<!DOCTYPE svg PUBLIC "-//W3C//DTD SVG 1.1//EN" "http://www.w3.org/Graphics/SVG/1.1/DTD/svg11.dtd">
<!-- Creator: CorelDRAW 2020 (64 Bit) -->
<svg xmlns="http://www.w3.org/2000/svg" xml:space="preserve" width="147.365mm" height="37.3183mm" version="1.1" style="shape-rendering:geometricPrecision; text-rendering:geometricPrecision; image-rendering:optimizeQuality; fill-rule:evenodd; clip-rule:evenodd"
viewBox="0 0 6259.68 1585.18"
 xmlns:xlink="http://www.w3.org/1999/xlink"
 xmlns:xodm="http://www.corel.com/coreldraw/odm/2003">
 <defs>
  <style type="text/css">
   <![CDATA[
    .fil0 {fill:whitesmoke;fill-rule:nonzero}
    .fil1 {fill:#FAFAFA;fill-rule:nonzero}
   ]]>
  </style>
 </defs>
 <g id="Layer_x0020_1">
  <metadata id="CorelCorpID_0Corel-Layer"/>
  <path class="fil0" d="M842.59 775.97l-150.59 259.78c-28.3,48.8 -64,91.01 -105,125.83 -130.63,111.18 -314.85,147.6 -483.13,84.65l-103.87 -38.91 201.72 -346.6 178.89 -307.55c43.58,-21.78 92.77,-34.09 144.78,-34.09 155.98,0 286.22,110.16 317.19,256.88z"/>
  <path class="fil0" d="M2419.72 1022.08c0,143.87 -116.62,260.5 -260.5,260.5 -143.87,0 -260.5,-116.63 -260.5,-260.5 0,-143.86 116.63,-260.49 260.5,-260.49 143.88,0 260.5,116.63 260.5,260.49z"/>
  <path class="fil1" d="M2222.9 599.5l-65.51 -41.33c-123.01,-77.66 -285.91,-37.14 -358.21,89.08l-285.97 499.22c-98.82,172.54 -347.91,171.81 -445.66,-1.37l-216.6 -383.52 -8.38 14.39c-30.94,-146.72 -161.18,-256.88 -317.17,-256.88 -52.03,0 -101.22,12.31 -144.8,34.1l246.67 -423.95c100.66,-173.02 350.96,-172.14 450.42,1.61l210.33 367.34 210.07 -363.41c101.38,-175.35 354.57,-175.44 456.04,0l268.77 464.72z"/>
  <path class="fil1" d="M3255.53 1212.77c-68.8,50.71 -151.71,76.06 -248.23,76.06 -93.49,0 -174.14,-24.28 -241.92,-72.64 -67.79,-48.55 -101.81,-106.1 -101.81,-172.63 0,-68.15 34.02,-126.06 101.81,-173.89 67.79,-47.65 148.43,-71.57 241.92,-71.57 96.52,0 179.43,25.35 248.23,76.24l95.51 -63.66 0 464.48 -95.51 -62.4zm-248.23 -352.09c-72.07,0 -132.8,17.62 -182.2,52.68 -49.39,35.25 -74.09,78.58 -74.09,130.19 0,51.43 24.7,94.76 74.09,130.01 49.4,35.24 110.13,52.68 182.2,52.68 71.06,0 131.55,-17.8 181.44,-53.22 49.9,-35.6 74.85,-78.76 74.85,-129.47 0,-50.89 -24.95,-94.05 -74.85,-129.47 -49.89,-35.6 -110.38,-53.41 -181.44,-53.41zm734.85 588.19c50.9,49.27 121.47,73.91 211.69,73.91 72.07,0 133.81,-17.62 185.22,-52.87 51.66,-35.24 77.36,-80.02 77.36,-134.5l0 -128.39c-69.05,54.49 -154.48,81.82 -256.29,81.82 -93.49,0 -174.13,-24.28 -241.92,-72.64 -67.79,-48.55 -101.81,-106.1 -101.81,-172.63 0,-68.15 34.02,-126.06 101.81,-173.89 67.79,-47.65 148.44,-71.57 241.92,-71.57 96.52,0 179.43,25.35 248.23,76.24l95.51 -63.66 0 524.72c0,69.59 -34.53,128.57 -103.33,177.12 -69.05,48.37 -151.2,72.65 -246.71,72.65 -114.67,0 -207.4,-32.55 -278.72,-97.64l67.04 -38.66zm217.98 -588.19c-72.07,0 -132.8,17.62 -182.2,52.68 -49.39,35.25 -74.09,78.58 -74.09,130.19 0,51.43 24.7,94.76 74.09,130.01 49.4,35.24 110.13,52.68 182.2,52.68 71.07,0 131.55,-17.8 181.45,-53.22 49.9,-35.6 74.84,-78.76 74.84,-129.47 0,-50.89 -24.95,-94.05 -74.84,-129.47 -49.9,-35.6 -110.38,-53.41 -181.45,-53.41zm632.79 -49.99l87.7 0 0 464.48 -87.7 0 0 -464.48zm0 -181.8l87.7 0 0 68.15 -87.7 0 0 -68.15zm696.54 169.21c95.51,0 176.65,23.91 243.44,71.57 67.03,47.83 100.3,105.73 100.3,173.89 0,66.53 -33.26,124.08 -100.3,172.63 -66.78,48.37 -147.92,72.64 -243.44,72.64 -93.49,0 -174.14,-24.28 -241.92,-72.64 -67.79,-48.55 -101.81,-106.1 -101.81,-172.63 0,-68.15 34.02,-126.06 101.81,-173.89 67.79,-47.65 148.43,-71.57 241.92,-71.57zm0 62.58c-72.07,0 -132.8,17.62 -182.2,52.68 -49.39,35.25 -74.09,78.58 -74.09,130.19 0,51.43 24.7,94.76 74.09,130.01 49.4,35.24 110.13,52.68 182.2,52.68 71.06,0 131.54,-17.8 181.44,-53.22 49.9,-35.6 74.84,-78.76 74.84,-129.47 0,-50.89 -24.95,-94.05 -74.84,-129.47 -49.9,-35.6 -110.38,-53.41 -181.44,-53.41zm661.52 315.76c21.17,30.21 56.19,45.31 105.08,45.31 32.76,0 60.48,-7.91 82.66,-23.74 22.43,-16.01 33.51,-35.6 33.51,-59.16 0,-18.88 -7.81,-35.78 -23.18,-50.53 -15.38,-14.75 -34.78,-24.46 -57.96,-28.95l-76.36 -15.82c-38.31,-8.45 -69.05,-23.38 -92.48,-44.96 -23.19,-21.58 -35.04,-46.03 -35.04,-73.18 0,-34.17 16.89,-63.12 50.15,-86.85 33.51,-23.92 74.09,-35.79 121.72,-35.79 34.02,0 65.52,6.83 94.75,20.32 29.23,13.66 50.14,31.83 63,54.49l-79.63 23.91c-12.85,-24.28 -38.81,-36.32 -78.12,-36.32 -24.19,0 -44.35,6.11 -60.48,18.16 -15.88,12.05 -23.69,26.07 -23.69,42.08 0,30.21 20.67,49.45 61.99,57.9l76.36 15.82c43.6,8.45 78.88,25.35 105.84,51.25 27.22,25.72 40.57,55.21 40.57,88.47 0,27.33 -9.07,51.97 -26.96,73.91 -18.15,21.94 -42.59,39.38 -73.34,52.15 -30.74,12.95 -65.27,19.42 -103.32,19.42 -38.31,0 -73.33,-7.01 -105.08,-21.04 -31.75,-14.03 -57.21,-33.27 -76.36,-57.36l76.36 -29.49z"/>
 </g>
</svg>
