<?xml version="1.0" encoding="UTF-8"?>
<!DOCTYPE svg PUBLIC "-//W3C//DTD SVG 1.1//EN" "http://www.w3.org/Graphics/SVG/1.1/DTD/svg11.dtd">
<!-- Creator: CorelDRAW 2020 (64 Bit) -->
<svg xmlns="http://www.w3.org/2000/svg" xml:space="preserve" width="56.9652mm" height="30.1946mm" version="1.1" style="shape-rendering:geometricPrecision; text-rendering:geometricPrecision; image-rendering:optimizeQuality; fill-rule:evenodd; clip-rule:evenodd"
viewBox="0 0 451.27 239.2"
 xmlns:xlink="http://www.w3.org/1999/xlink"
 xmlns:xodm="http://www.corel.com/coreldraw/odm/2003">
 <defs>
  <style type="text/css">
   <![CDATA[
    .fil0 {fill:#666699;fill-rule:nonzero}
    .fil1 {fill:#7657A6;fill-rule:nonzero}
   ]]>
  </style>
 </defs>
 <g id="Layer_x0020_1">
  <metadata id="CorelCorpID_0Corel-Layer"/>
  <path class="fil0" d="M157.14 144.72l-28.09 48.45c-5.28,9.1 -11.94,16.97 -19.58,23.47 -24.36,20.73 -58.72,27.53 -90.1,15.79l-19.37 -7.26 37.62 -64.64 33.36 -57.36c8.13,-4.06 17.3,-6.36 27,-6.36 29.09,0 53.38,20.54 59.15,47.91z"/>
  <path class="fil0" d="M451.27 190.62c0,26.83 -21.75,48.58 -48.58,48.58 -26.83,0 -48.58,-21.75 -48.58,-48.58 0,-26.83 21.75,-48.58 48.58,-48.58 26.83,0 48.58,21.75 48.58,48.58z"/>
  <path class="fil1" d="M414.57 111.81l-12.22 -7.71c-22.94,-14.48 -53.32,-6.93 -66.8,16.61l-53.33 93.1c-18.43,32.18 -64.88,32.04 -83.11,-0.26l-40.39 -71.53 -1.56 2.68c-5.77,-27.36 -30.06,-47.91 -59.15,-47.91 -9.7,0 -18.88,2.3 -27.01,6.36l46 -79.07c18.77,-32.27 65.45,-32.1 84,0.3l39.23 68.51 39.18 -67.78c18.91,-32.7 66.13,-32.72 85.05,0l50.12 86.67z"/>
 </g>
</svg>
