<?xml version="1.0" encoding="UTF-8"?>
<!DOCTYPE svg PUBLIC "-//W3C//DTD SVG 1.1//EN" "http://www.w3.org/Graphics/SVG/1.1/DTD/svg11.dtd">
<!-- Creator: CorelDRAW 2020 (64 Bit) -->
<svg xmlns="http://www.w3.org/2000/svg" xml:space="preserve" width="56.9652mm" height="30.1946mm" version="1.1" style="shape-rendering:geometricPrecision; text-rendering:geometricPrecision; image-rendering:optimizeQuality; fill-rule:evenodd; clip-rule:evenodd"
viewBox="0 0 450.88 238.99"
 xmlns:xlink="http://www.w3.org/1999/xlink"
 xmlns:xodm="http://www.corel.com/coreldraw/odm/2003">
 <defs>
  <style type="text/css">
   <![CDATA[
    .fil1 {fill:#4A4A4A;fill-rule:nonzero}
    .fil0 {fill:#5C5C5C;fill-rule:nonzero}
   ]]>
  </style>
 </defs>
 <g id="Layer_x0020_1">
  <metadata id="CorelCorpID_0Corel-Layer"/>
  <path class="fil0" d="M157 144.59l-28.06 48.41c-5.27,9.09 -11.92,16.96 -19.57,23.45 -24.34,20.72 -58.67,27.5 -90.02,15.77l-19.35 -7.25 37.59 -64.58 33.33 -57.31c8.12,-4.06 17.29,-6.35 26.98,-6.35 29.06,0 53.33,20.53 59.1,47.87z"/>
  <path class="fil0" d="M450.88 190.45c0,26.81 -21.73,48.54 -48.54,48.54 -26.81,0 -48.54,-21.73 -48.54,-48.54 0,-26.81 21.73,-48.54 48.54,-48.54 26.81,0 48.54,21.73 48.54,48.54z"/>
  <path class="fil1" d="M414.2 111.71l-12.21 -7.7c-22.92,-14.47 -53.28,-6.92 -66.75,16.6l-53.29 93.02c-18.41,32.15 -64.83,32.01 -83.04,-0.26l-40.36 -71.46 -1.56 2.68c-5.77,-27.34 -30.03,-47.87 -59.1,-47.87 -9.69,0 -18.86,2.29 -26.98,6.35l45.96 -79c18.76,-32.24 65.4,-32.08 83.93,0.3l39.19 68.45 39.14 -67.72c18.89,-32.67 66.07,-32.69 84.98,0l50.08 86.59z"/>
 </g>
</svg>
