<?xml version="1.0" encoding="UTF-8"?>
<!DOCTYPE svg PUBLIC "-//W3C//DTD SVG 1.1//EN" "http://www.w3.org/Graphics/SVG/1.1/DTD/svg11.dtd">
<!-- Creator: CorelDRAW 2020 (64 Bit) -->
<svg xmlns="http://www.w3.org/2000/svg" xml:space="preserve" width="180px" height="95px" version="1.1" style="shape-rendering:geometricPrecision; text-rendering:geometricPrecision; image-rendering:optimizeQuality; fill-rule:evenodd; clip-rule:evenodd"
viewBox="0 0 14.23 7.54"
 xmlns:xlink="http://www.w3.org/1999/xlink"
 xmlns:xodm="http://www.corel.com/coreldraw/odm/2003">
 <defs>
  <style type="text/css">
   <![CDATA[
    .fil0 {fill:#666699;fill-rule:nonzero}
    .fil1 {fill:#7657A6;fill-rule:nonzero}
   ]]>
  </style>
 </defs>
 <g id="Layer_x0020_1">
  <metadata id="CorelCorpID_0Corel-Layer"/>
  <path class="fil0" d="M4.95 4.56l-0.88 1.53c-0.17,0.29 -0.38,0.54 -0.62,0.74 -0.77,0.65 -1.85,0.87 -2.84,0.5l-0.61 -0.23 1.19 -2.04 1.05 -1.81c0.25,-0.13 0.54,-0.2 0.85,-0.2 0.92,0 1.68,0.65 1.86,1.51z"/>
  <path class="fil0" d="M14.23 6.01c0,0.85 -0.69,1.53 -1.53,1.53 -0.85,0 -1.54,-0.68 -1.54,-1.53 0,-0.85 0.69,-1.53 1.54,-1.53 0.84,0 1.53,0.68 1.53,1.53z"/>
  <path class="fil1" d="M13.07 3.52l-0.38 -0.24c-0.73,-0.45 -1.69,-0.22 -2.11,0.53l-1.68 2.93c-0.58,1.02 -2.05,1.01 -2.62,-0.01l-1.28 -2.25 -0.05 0.08c-0.18,-0.86 -0.94,-1.51 -1.86,-1.51 -0.31,0 -0.6,0.07 -0.85,0.2l1.45 -2.49c0.59,-1.02 2.06,-1.01 2.65,0.01l1.23 2.16 1.24 -2.14c0.59,-1.03 2.08,-1.03 2.68,0l1.58 2.73z"/>
 </g>
</svg>
