<?xml version="1.0" encoding="UTF-8"?>
<!DOCTYPE svg PUBLIC "-//W3C//DTD SVG 1.1//EN" "http://www.w3.org/Graphics/SVG/1.1/DTD/svg11.dtd">
<!-- Creator: CorelDRAW 2020 (64 Bit) -->
<svg xmlns="http://www.w3.org/2000/svg" xml:space="preserve" width="57.5779mm" height="41.436mm" version="1.1" style="shape-rendering:geometricPrecision; text-rendering:geometricPrecision; image-rendering:optimizeQuality; fill-rule:evenodd; clip-rule:evenodd"
viewBox="0 0 385.6 277.5"
 xmlns:xlink="http://www.w3.org/1999/xlink"
 xmlns:xodm="http://www.corel.com/coreldraw/odm/2003">
 <defs>
  <style type="text/css">
   <![CDATA[
    .fil0 {fill:whitesmoke;fill-rule:nonzero}
    .fil1 {fill:#FAFAFA;fill-rule:nonzero}
   ]]>
  </style>
 </defs>
 <g id="Layer_x0020_1">
  <metadata id="CorelCorpID_0Corel-Layer"/>
  <path class="fil0" d="M132.84 122.34l-23.74 40.96c-4.46,7.69 -10.09,14.35 -16.55,19.84 -20.6,17.53 -49.64,23.27 -76.17,13.35l-16.38 -6.13 31.8 -54.65 28.2 -48.49c6.87,-3.43 14.63,-5.37 22.83,-5.37 24.59,0 45.13,17.37 50.01,40.5z"/>
  <path class="fil0" d="M381.5 161.14c0,22.68 -18.39,41.07 -41.07,41.07 -22.68,0 -41.07,-18.39 -41.07,-41.07 0,-22.68 18.39,-41.07 41.07,-41.07 22.69,0 41.07,18.39 41.07,41.07z"/>
  <path class="fil1" d="M350.47 94.52l-10.33 -6.52c-19.39,-12.24 -45.08,-5.86 -56.48,14.05l-45.09 78.71c-15.58,27.2 -54.85,27.09 -70.26,-0.22l-34.15 -60.47 -1.32 2.27c-4.88,-23.13 -25.41,-40.5 -50.01,-40.5 -8.2,0 -15.96,1.94 -22.83,5.38l38.89 -66.84c15.87,-27.28 55.33,-27.14 71.01,0.25l33.16 57.92 33.12 -57.3c15.98,-27.65 55.9,-27.66 71.9,0l42.37 73.27z"/>
  <path class="fil1" d="M38.77 265.87l-3.28 0 0 -11.11c0,-1.33 -0.62,-2.41 -1.85,-3.22 -1.24,-0.81 -2.68,-1.21 -4.36,-1.21 -1.63,0 -3.08,0.4 -4.33,1.21 -1.26,0.81 -1.88,1.88 -1.88,3.22l0 11.11 -3.28 0 0 -11.11c0,-1.33 -0.62,-2.41 -1.85,-3.22 -1.24,-0.81 -2.68,-1.21 -4.36,-1.21 -1.63,0 -3.08,0.4 -4.33,1.21 -1.26,0.81 -1.88,1.88 -1.88,3.22l0 11.11 -3.29 0 0 -17.42 2.75 1.53c1.87,-1.33 4.12,-2 6.75,-2 1.59,0 3.1,0.27 4.54,0.81 1.43,0.54 2.54,1.25 3.34,2.13 1.91,-1.96 4.52,-2.94 7.82,-2.94 1.39,0 2.66,0.19 3.79,0.55 1.13,0.37 2.11,0.85 2.92,1.43 0.82,0.58 1.48,1.28 2,2.09 0.52,0.81 0.77,1.71 0.77,2.7l0 11.11zm32.14 -2.34c-2.58,1.9 -5.69,2.85 -9.31,2.85 -3.51,0 -6.53,-0.91 -9.07,-2.72 -2.54,-1.82 -3.82,-3.98 -3.82,-6.47 0,-2.56 1.28,-4.73 3.82,-6.52 2.54,-1.79 5.57,-2.68 9.07,-2.68 3.62,0 6.73,0.95 9.31,2.86l3.58 -2.39 0 17.42 -3.58 -2.34zm-9.31 -13.2c-2.7,0 -4.98,0.66 -6.83,1.98 -1.85,1.32 -2.78,2.95 -2.78,4.88 0,1.93 0.93,3.55 2.78,4.88 1.85,1.32 4.13,1.98 6.83,1.98 2.66,0 4.93,-0.67 6.8,-2 1.87,-1.34 2.81,-2.95 2.81,-4.86 0,-1.91 -0.94,-3.53 -2.81,-4.86 -1.87,-1.33 -4.14,-2 -6.8,-2zm27.56 22.06c1.91,1.85 4.55,2.77 7.94,2.77 2.7,0 5.02,-0.66 6.95,-1.98 1.94,-1.32 2.9,-3 2.9,-5.04l0 -4.81c-2.59,2.04 -5.79,3.07 -9.61,3.07 -3.51,0 -6.53,-0.91 -9.07,-2.72 -2.54,-1.82 -3.82,-3.98 -3.82,-6.47 0,-2.56 1.28,-4.73 3.82,-6.52 2.54,-1.79 5.57,-2.68 9.07,-2.68 3.62,0 6.73,0.95 9.31,2.86l3.58 -2.39 0 19.68c0,2.61 -1.3,4.82 -3.88,6.64 -2.59,1.81 -5.67,2.72 -9.25,2.72 -4.3,0 -7.78,-1.22 -10.45,-3.66l2.51 -1.45zm8.17 -22.06c-2.7,0 -4.98,0.66 -6.83,1.98 -1.85,1.32 -2.78,2.95 -2.78,4.88 0,1.93 0.93,3.55 2.78,4.88 1.85,1.32 4.13,1.98 6.83,1.98 2.66,0 4.93,-0.67 6.8,-2 1.87,-1.34 2.81,-2.95 2.81,-4.86 0,-1.91 -0.94,-3.53 -2.81,-4.86 -1.87,-1.33 -4.14,-2 -6.8,-2zm23.73 -1.87l3.29 0 0 17.42 -3.29 0 0 -17.42zm0 -6.82l3.29 0 0 2.56 -3.29 0 0 -2.56zm26.12 6.35c3.58,0 6.62,0.9 9.13,2.68 2.51,1.79 3.76,3.97 3.76,6.52 0,2.5 -1.25,4.65 -3.76,6.47 -2.5,1.81 -5.55,2.72 -9.13,2.72 -3.51,0 -6.53,-0.91 -9.07,-2.72 -2.54,-1.82 -3.82,-3.98 -3.82,-6.47 0,-2.56 1.28,-4.73 3.82,-6.52 2.54,-1.79 5.57,-2.68 9.07,-2.68zm0 2.35c-2.7,0 -4.98,0.66 -6.83,1.98 -1.85,1.32 -2.78,2.95 -2.78,4.88 0,1.93 0.93,3.55 2.78,4.88 1.85,1.32 4.13,1.98 6.83,1.98 2.66,0 4.93,-0.67 6.8,-2 1.87,-1.34 2.81,-2.95 2.81,-4.86 0,-1.91 -0.94,-3.53 -2.81,-4.86 -1.87,-1.33 -4.14,-2 -6.8,-2zm24.81 11.84c0.79,1.13 2.11,1.7 3.94,1.7 1.23,0 2.27,-0.3 3.1,-0.89 0.84,-0.6 1.26,-1.33 1.26,-2.22 0,-0.71 -0.29,-1.34 -0.87,-1.9 -0.58,-0.55 -1.3,-0.92 -2.17,-1.09l-2.86 -0.59c-1.44,-0.32 -2.59,-0.88 -3.47,-1.69 -0.87,-0.81 -1.31,-1.73 -1.31,-2.74 0,-1.28 0.63,-2.37 1.88,-3.26 1.26,-0.9 2.78,-1.34 4.56,-1.34 1.28,0 2.46,0.26 3.55,0.76 1.1,0.51 1.88,1.19 2.36,2.04l-2.99 0.9c-0.48,-0.91 -1.46,-1.36 -2.93,-1.36 -0.91,0 -1.66,0.23 -2.27,0.68 -0.6,0.45 -0.89,0.98 -0.89,1.58 0,1.13 0.77,1.85 2.32,2.17l2.86 0.59c1.63,0.32 2.96,0.95 3.97,1.92 1.02,0.96 1.52,2.07 1.52,3.32 0,1.02 -0.34,1.95 -1.01,2.77 -0.68,0.82 -1.6,1.48 -2.75,1.96 -1.15,0.49 -2.45,0.73 -3.88,0.73 -1.44,0 -2.75,-0.26 -3.94,-0.79 -1.19,-0.53 -2.15,-1.25 -2.86,-2.15l2.86 -1.11zm21.52 1.36l3.29 0 0 2.34 -3.29 0 0 -2.34zm36.02 -12.23l-2.56 1.45c-1.96,-1.62 -4.39,-2.43 -7.34,-2.43 -2.7,0 -4.98,0.66 -6.83,1.98 -1.85,1.32 -2.78,2.95 -2.78,4.88 0,1.93 0.93,3.55 2.78,4.88 1.85,1.32 4.13,1.98 6.83,1.98 2.9,0 5.29,-0.76 7.16,-2.3l2.63 1.45c-1.24,1.02 -2.68,1.81 -4.36,2.37 -1.67,0.55 -3.49,0.83 -5.43,0.83 -3.51,0 -6.53,-0.91 -9.07,-2.72 -2.54,-1.82 -3.82,-3.98 -3.82,-6.47 0,-2.56 1.28,-4.73 3.82,-6.52 2.54,-1.79 5.57,-2.68 9.07,-2.68 2.03,0 3.87,0.28 5.55,0.86 1.67,0.57 3.13,1.39 4.36,2.47zm21.94 -3.32c3.58,0 6.62,0.9 9.13,2.68 2.51,1.79 3.76,3.97 3.76,6.52 0,2.5 -1.25,4.65 -3.76,6.47 -2.5,1.81 -5.55,2.72 -9.13,2.72 -3.51,0 -6.53,-0.91 -9.07,-2.72 -2.54,-1.82 -3.82,-3.98 -3.82,-6.47 0,-2.56 1.28,-4.73 3.82,-6.52 2.54,-1.79 5.57,-2.68 9.07,-2.68zm0 2.35c-2.7,0 -4.98,0.66 -6.83,1.98 -1.85,1.32 -2.78,2.95 -2.78,4.88 0,1.93 0.93,3.55 2.78,4.88 1.85,1.32 4.13,1.98 6.83,1.98 2.66,0 4.93,-0.67 6.8,-2 1.87,-1.34 2.81,-2.95 2.81,-4.86 0,-1.91 -0.94,-3.53 -2.81,-4.86 -1.87,-1.33 -4.14,-2 -6.8,-2zm57.51 15.54l-3.28 0 0 -11.11c0,-1.33 -0.62,-2.41 -1.85,-3.22 -1.24,-0.81 -2.68,-1.21 -4.36,-1.21 -1.63,0 -3.08,0.4 -4.33,1.21 -1.26,0.81 -1.88,1.88 -1.88,3.22l0 11.11 -3.28 0 0 -11.11c0,-1.33 -0.62,-2.41 -1.85,-3.22 -1.24,-0.81 -2.68,-1.21 -4.36,-1.21 -1.64,0 -3.08,0.4 -4.33,1.21 -1.26,0.81 -1.88,1.88 -1.88,3.22l0 11.11 -3.29 0 0 -17.42 2.75 1.53c1.87,-1.33 4.12,-2 6.75,-2 1.59,0 3.1,0.27 4.54,0.81 1.43,0.54 2.54,1.25 3.34,2.13 1.91,-1.96 4.52,-2.94 7.82,-2.94 1.39,0 2.66,0.19 3.79,0.55 1.13,0.37 2.11,0.85 2.92,1.43 0.82,0.58 1.48,1.28 2,2.09 0.52,0.81 0.77,1.71 0.77,2.7l0 11.11zm10.83 -2.34l3.29 0 0 2.34 -3.29 0 0 -2.34zm30.17 -13.2c-2.66,0 -4.93,0.67 -6.8,2 -1.86,1.33 -2.8,2.95 -2.8,4.86 0,1.9 0.94,3.52 2.8,4.86 1.87,1.33 4.14,2 6.8,2 2.71,0 4.99,-0.65 6.84,-1.98 1.84,-1.32 2.77,-2.95 2.77,-4.88 0,-1.94 -0.93,-3.56 -2.77,-4.88 -1.85,-1.31 -4.13,-1.98 -6.84,-1.98zm-12.89 -11.07l-4.05 0 1.79 -2.35 5.56 0 0 14.14c2.58,-2.04 5.78,-3.07 9.6,-3.07 3.58,0 6.62,0.9 9.14,2.68 2.5,1.79 3.76,3.97 3.76,6.52 0,2.5 -1.26,4.65 -3.76,6.47 -2.51,1.81 -5.56,2.72 -9.14,2.72 -3.62,0 -6.72,-0.95 -9.31,-2.85l-3.58 2.34 0 -26.62zm48.5 9.16l-1.49 2.08c-0.47,-0.11 -1.05,-0.17 -1.73,-0.17 -1.83,0 -3.34,0.44 -4.51,1.32 -1.17,0.88 -1.76,1.93 -1.76,3.15l0 11.07 -3.29 0 0 -17.42 2.75 1.58c1.83,-1.37 4.1,-2.05 6.8,-2.05 1.19,0 2.27,0.14 3.22,0.43z"/>
 </g>
</svg>
