<?xml version="1.0" encoding="UTF-8"?>
<!DOCTYPE svg PUBLIC "-//W3C//DTD SVG 1.1//EN" "http://www.w3.org/Graphics/SVG/1.1/DTD/svg11.dtd">
<!-- Creator: CorelDRAW 2020 (64 Bit) -->
<svg xmlns="http://www.w3.org/2000/svg" xml:space="preserve" width="147.622mm" height="37.2882mm" version="1.1" style="shape-rendering:geometricPrecision; text-rendering:geometricPrecision; image-rendering:optimizeQuality; fill-rule:evenodd; clip-rule:evenodd"
viewBox="0 0 6287.21 1588.1"
 xmlns:xlink="http://www.w3.org/1999/xlink"
 xmlns:xodm="http://www.corel.com/coreldraw/odm/2003">
 <defs>
  <style type="text/css">
   <![CDATA[
    .fil1 {fill:#4A4A4A;fill-rule:nonzero}
    .fil0 {fill:#5C5C5C;fill-rule:nonzero}
   ]]>
  </style>
 </defs>
 <g id="Layer_x0020_1">
  <metadata id="CorelCorpID_0Corel-Layer"/>
  <path class="fil0" d="M844.82 778.03l-150.99 260.47c-28.37,48.93 -64.17,91.25 -105.28,126.17 -130.98,111.47 -315.68,148 -484.41,84.88l-104.14 -39.01 202.26 -347.52 179.37 -308.37c43.69,-21.84 93.02,-34.18 145.17,-34.18 156.39,0 286.98,110.45 318.03,257.56z"/>
  <path class="fil0" d="M2426.14 1024.79c0,144.26 -116.93,261.19 -261.19,261.19 -144.26,0 -261.19,-116.93 -261.19,-261.19 0,-144.24 116.93,-261.18 261.19,-261.18 144.26,0 261.19,116.94 261.19,261.18z"/>
  <path class="fil1" d="M2228.79 601.09l-65.69 -41.44c-123.34,-77.87 -286.67,-37.24 -359.16,89.32l-286.72 500.54c-99.08,173 -348.83,172.27 -446.84,-1.38l-217.17 -384.53 -8.4 14.43c-31.02,-147.11 -161.61,-257.56 -318.01,-257.56 -52.16,0 -101.49,12.34 -145.19,34.19l247.32 -425.08c100.93,-173.48 351.89,-172.6 451.61,1.62l210.89 368.32 210.63 -364.37c101.65,-175.82 355.51,-175.9 457.25,0l269.48 465.95z"/>
  <path class="fil1" d="M3275.09 1214.7c-68.98,50.84 -152.11,76.27 -248.89,76.27 -93.74,0 -174.6,-24.34 -242.57,-72.84 -67.96,-48.68 -102.07,-106.38 -102.07,-173.08 0,-68.34 34.11,-126.39 102.07,-174.35 67.97,-47.78 148.83,-71.76 242.57,-71.76 96.78,0 179.91,25.42 248.89,76.44l95.76 -63.83 0 465.71 -95.76 -62.56zm-248.89 -353.02c-72.26,0 -133.16,17.67 -182.68,52.82 -49.52,35.34 -74.29,78.79 -74.29,130.54 0,51.56 24.77,95.01 74.29,130.35 49.53,35.34 110.42,52.82 182.68,52.82 71.25,0 131.9,-17.85 181.92,-53.36 50.03,-35.7 75.05,-78.97 75.05,-129.81 0,-51.03 -25.02,-94.3 -75.05,-129.81 -50.03,-35.7 -110.67,-53.55 -181.92,-53.55zm736.79 589.75c51.04,49.4 121.79,74.1 212.25,74.1 72.26,0 134.17,-17.67 185.71,-53.01 51.8,-35.34 77.57,-80.23 77.57,-134.86l0 -128.73c-69.23,54.63 -154.89,82.03 -256.97,82.03 -93.74,0 -174.59,-24.34 -242.57,-72.84 -67.96,-48.68 -102.07,-106.38 -102.07,-173.08 0,-68.34 34.11,-126.39 102.07,-174.35 67.97,-47.78 148.83,-71.76 242.57,-71.76 96.78,0 179.91,25.42 248.89,76.44l95.76 -63.83 0 526.11c0,69.77 -34.62,128.91 -103.6,177.59 -69.23,48.5 -151.6,72.84 -247.36,72.84 -114.97,0 -207.95,-32.64 -279.46,-97.9l67.22 -38.77zm218.56 -589.75c-72.26,0 -133.15,17.67 -182.68,52.82 -49.52,35.34 -74.29,78.79 -74.29,130.54 0,51.56 24.76,95.01 74.29,130.35 49.53,35.34 110.42,52.82 182.68,52.82 71.26,0 131.9,-17.85 181.93,-53.36 50.03,-35.7 75.04,-78.97 75.04,-129.81 0,-51.03 -25.01,-94.3 -75.04,-129.81 -50.03,-35.7 -110.67,-53.55 -181.93,-53.55zm634.46 -50.12l87.93 0 0 465.71 -87.93 0 0 -465.71zm0 -182.28l87.93 0 0 68.33 -87.93 0 0 -68.33zm698.39 169.66c95.77,0 177.12,23.98 244.08,71.76 67.21,47.96 100.56,106.01 100.56,174.35 0,66.71 -33.35,124.4 -100.56,173.08 -66.96,48.5 -148.31,72.84 -244.08,72.84 -93.74,0 -174.6,-24.34 -242.57,-72.84 -67.96,-48.68 -102.08,-106.38 -102.08,-173.08 0,-68.34 34.11,-126.39 102.08,-174.35 67.97,-47.78 148.83,-71.76 242.57,-71.76zm0 62.74c-72.26,0 -133.16,17.67 -182.68,52.82 -49.52,35.34 -74.29,78.79 -74.29,130.54 0,51.56 24.76,95.01 74.29,130.35 49.53,35.34 110.42,52.82 182.68,52.82 71.25,0 131.89,-17.85 181.92,-53.36 50.03,-35.7 75.04,-78.97 75.04,-129.81 0,-51.03 -25.01,-94.3 -75.04,-129.81 -50.03,-35.7 -110.67,-53.55 -181.92,-53.55zm663.27 316.6c21.22,30.29 56.34,45.43 105.36,45.43 32.85,0 60.64,-7.93 82.88,-23.8 22.49,-16.05 33.6,-35.7 33.6,-59.32 0,-18.93 -7.83,-35.88 -23.24,-50.66 -15.42,-14.79 -34.87,-24.52 -58.12,-29.03l-76.56 -15.86c-38.41,-8.48 -69.23,-23.44 -92.73,-45.08 -23.25,-21.64 -35.13,-46.15 -35.13,-73.38 0,-34.26 16.93,-63.28 50.29,-87.08 33.6,-23.98 74.29,-35.88 122.04,-35.88 34.11,0 65.69,6.85 95.01,20.37 29.31,13.7 50.28,31.91 63.16,54.63l-79.84 23.98c-12.89,-24.34 -38.91,-36.42 -78.33,-36.42 -24.25,0 -44.47,6.13 -60.64,18.21 -15.92,12.08 -23.76,26.14 -23.76,42.19 0,30.29 20.72,49.58 62.16,58.05l76.56 15.86c43.71,8.48 79.09,25.42 106.12,51.38 27.29,25.78 40.68,55.35 40.68,88.71 0,27.41 -9.1,52.11 -27.04,74.1 -18.19,22 -42.7,39.48 -73.53,52.29 -30.82,12.98 -65.44,19.47 -103.59,19.47 -38.41,0 -73.53,-7.03 -105.36,-21.09 -31.84,-14.06 -57.36,-33.36 -76.56,-57.51l76.56 -29.57z"/>
 </g>
</svg>
